<?xml version="1.0" encoding="UTF-8" standalone="no"?>
<!-- Generator: Adobe Illustrator 26.0.3, SVG Export Plug-In . SVG Version: 6.00 Build 0)  -->

<svg
   version="1.1"
   id="Layer_1"
   x="0px"
   y="0px"
   viewBox="0 0 481.49178 182.16168"
   xml:space="preserve"
   sodipodi:docname="logo-wide.svg"
   inkscape:version="1.4 (e7c3feb1, 2024-10-09)"
   width="481.49179"
   height="182.16168"
   xmlns:inkscape="http://www.inkscape.org/namespaces/inkscape"
   xmlns:sodipodi="http://sodipodi.sourceforge.net/DTD/sodipodi-0.dtd"
   xmlns="http://www.w3.org/2000/svg"
   xmlns:svg="http://www.w3.org/2000/svg"><defs
   id="defs3" /><sodipodi:namedview
   id="namedview3"
   pagecolor="#505050"
   bordercolor="#eeeeee"
   borderopacity="1"
   inkscape:showpageshadow="0"
   inkscape:pageopacity="0"
   inkscape:pagecheckerboard="0"
   inkscape:deskcolor="#505050"
   inkscape:zoom="1.6075828"
   inkscape:cx="233.89153"
   inkscape:cy="57.539805"
   inkscape:window-width="1440"
   inkscape:window-height="830"
   inkscape:window-x="35"
   inkscape:window-y="25"
   inkscape:window-maximized="0"
   inkscape:current-layer="layer1" />
<style
   type="text/css"
   id="style1">
	.st0{fill:#616161;}
	.st1{fill:#F37726;}
</style>



<g
   inkscape:groupmode="layer"
   id="layer1"
   inkscape:label="background"><rect
     style="fill:#ffffff;stroke:none;stroke-width:2.78568;stroke-dasharray:2.7379, 2.7379"
     id="rect5"
     width="478.70612"
     height="179.37601"
     x="1.39284"
     y="1.39284" /><g
     id="g58"
     transform="matrix(2.6540522,0,0,2.6540522,8.9622596,24.637376)">
	<g
   id="g33">
		<path
   d="m 15.3,30.2 c -0.3,0 -0.6,0.3 -0.5,0.5 0,0.2 0.4,0.4 0.6,0.3 0.6,0.1 0.6,-0.9 -0.1,-0.8 z"
   id="path1" />
		<polygon
   points="14.6,33.1 14.1,33.1 13.5,34.1 13.5,33.1 13,33.1 13,35.5 13.5,35.5 13.5,34.8 13.7,34.5 14.2,35.5 14.7,35.5 14,34.1 "
   id="polygon1" />
		<polygon
   points="15.5,34.5 15.5,35.5 16,35.5 16,34.5 16.6,33.1 16.1,33.1 15.8,34 15.5,33.1 14.9,33.1 "
   id="polygon2" />
		<path
   d="M 18.4,33.4 C 18.3,33.3 18.3,33.2 18.1,33.1 18,33.1 17.9,33 17.7,33 c -0.2,0 -0.3,0 -0.4,0.1 -0.1,0.1 -0.2,0.1 -0.3,0.3 -0.1,0.1 -0.1,0.2 -0.1,0.4 0,0.1 0,0.3 0,0.5 0,0.2 0,0.4 0,0.5 0,0.2 0,0.3 0.1,0.4 0.1,0.1 0.1,0.2 0.3,0.2 0.1,0.1 0.3,0.1 0.4,0.1 0.2,0 0.3,0 0.4,-0.1 0.1,-0.1 0.2,-0.1 0.3,-0.2 0.1,-0.1 0.1,-0.2 0.1,-0.4 0,-0.1 0,-0.3 0,-0.5 0,-0.2 0,-0.4 0,-0.5 0,-0.2 -0.1,-0.3 -0.1,-0.4 z M 18,34.7 c 0,0.1 0,0.2 -0.1,0.3 0,0.1 -0.1,0.1 -0.1,0.2 0,0 -0.1,0.1 -0.2,0.1 -0.1,0 -0.1,0 -0.2,-0.1 -0.1,0 -0.1,-0.1 -0.1,-0.2 0,-0.1 0,-0.2 0,-0.3 0,-0.1 0,-0.2 0,-0.4 0,-0.2 0,-0.3 0,-0.4 0,-0.1 0,-0.2 0,-0.3 0,-0.1 0,-0.1 0.1,-0.2 0,0 0.1,0 0.2,0 0.1,0 0.1,0 0.2,0 0.1,0 0.1,0.1 0.1,0.2 0,0.1 0,0.2 0.1,0.3 0,0.1 0,0.2 0,0.4 0,0.2 0,0.3 0,0.4 z"
   id="path2" />
		<polygon
   points="20.3,33.5 20.3,33.1 18.8,33.1 18.8,33.5 19.3,33.5 19.3,35.5 19.8,35.5 19.8,33.5 "
   id="polygon3" />
		<path
   d="M 22,33.4 C 21.9,33.3 21.9,33.2 21.8,33.1 21.7,33 21.6,33 21.4,33 c -0.2,0 -0.3,0 -0.4,0.1 -0.1,0.1 -0.2,0.1 -0.2,0.3 -0.1,0.1 -0.1,0.2 -0.1,0.4 0,0.1 0,0.3 0,0.5 0,0.2 0,0.4 0,0.5 0,0.2 0.1,0.3 0.1,0.4 0.1,0.1 0.1,0.2 0.2,0.2 0.1,0.1 0.3,0.1 0.4,0.1 0.2,0 0.3,0 0.4,-0.1 0.1,-0.1 0.2,-0.1 0.2,-0.2 0.1,-0.1 0.1,-0.2 0.1,-0.4 0,-0.1 0,-0.3 0,-0.5 0,-0.2 0,-0.4 0,-0.5 0,-0.2 -0.1,-0.3 -0.1,-0.4 z m -0.4,1.3 c 0,0.1 0,0.2 0,0.3 0,0.1 -0.1,0.1 -0.1,0.2 0,0 -0.1,0.1 -0.2,0.1 -0.1,0 -0.1,0 -0.2,-0.1 0,0 -0.1,-0.1 -0.1,-0.2 0,-0.1 0,-0.2 0,-0.3 0,-0.1 0,-0.2 0,-0.4 0,-0.2 0,-0.3 0,-0.4 0,-0.1 0,-0.2 0,-0.3 0,-0.1 0.1,-0.1 0.1,-0.2 0,0 0.1,0 0.2,0 0.1,0 0.1,0 0.2,0 0.1,0 0.1,0.1 0.1,0.2 0,0.1 0,0.2 0,0.3 0,0.1 0,0.2 0,0.4 0,0.2 0,0.3 0,0.4 z"
   id="path3" />
		<path
   d="m 31.1,34.8 c 0,0.1 0,0.2 0,0.3 0,0.1 -0.1,0.1 -0.2,0.1 -0.1,0 -0.1,0 -0.2,-0.1 0,-0.1 0,-0.2 0,-0.3 v -0.1 h -0.4 v 0.1 c 0,0.1 0,0.2 0,0.3 0,0.1 0,0.2 0.1,0.2 0,0.1 0.1,0.1 0.2,0.1 0.1,0 0.2,0.1 0.3,0.1 0.2,0 0.4,-0.1 0.5,-0.2 0.1,-0.1 0.2,-0.3 0.2,-0.5 v -1.7 h -0.5 z"
   id="path4" />
		<path
   d="m 32.5,33.1 -0.6,2.4 h 0.5 L 32.5,35 h 0.6 l 0.1,0.5 h 0.5 l -0.6,-2.4 z m 0.1,1.5 0.2,-1.1 v 0 l 0.2,1.1 z"
   id="path5" />
		<path
   d="m 35.5,33.5 c 0,-0.1 -0.1,-0.2 -0.1,-0.2 C 35.3,33.2 35.3,33.2 35.2,33.1 35.1,33.1 35,33 34.9,33 H 34 v 2.4 h 0.5 v -1 h 0.3 c 0.1,0 0.2,0 0.3,0 0.1,0 0.2,-0.1 0.2,-0.1 0.1,-0.1 0.1,-0.1 0.2,-0.2 0,-0.1 0.1,-0.2 0.1,-0.3 -0.1,-0.1 -0.1,-0.2 -0.1,-0.3 z M 35,34.1 c -0.1,0.1 -0.1,0.1 -0.2,0.1 h -0.2 v -0.7 h 0.2 c 0.1,0 0.2,0 0.3,0.1 0,0.1 0.1,0.2 0.1,0.3 -0.1,0 -0.2,0.1 -0.2,0.2 z"
   id="path6" />
		<path
   d="m 36.2,33.1 -0.6,2.4 h 0.5 L 36.2,35 h 0.6 l 0.1,0.5 h 0.5 l -0.6,-2.4 z m 0,1.5 0.2,-1.1 v 0 l 0.2,1.1 z"
   id="path7" />
		<polygon
   points="38.2,33.1 37.7,33.1 37.7,35.5 38.1,35.5 38.1,33.8 38.7,35.5 39.3,35.5 39.3,33.1 38.8,33.1 38.8,34.7 "
   id="polygon7" />
		<path
   d="m 23.8,35.4 c 0.1,0 0.2,-0.1 0.2,-0.2 v -1.5 h 1.2 v 1.5 c 0,0.1 0.1,0.2 0.2,0.2 0.1,0 0.2,-0.1 0.2,-0.2 V 33.7 H 27 v 1.5 c 0,0.1 0.1,0.2 0.2,0.2 0.1,0 0.2,-0.1 0.2,-0.2 v -1.5 h 1.3 v 1.5 c 0,0.1 0.1,0.2 0.2,0.2 0.1,0 0.2,-0.1 0.2,-0.2 v -1.7 c 0,-0.1 -0.1,-0.2 -0.2,-0.2 h -2.3 v -0.8 c 0,-0.1 -0.1,-0.2 -0.2,-0.2 -0.1,0 -0.2,0.1 -0.2,0.2 v 0.8 h -2.3 c -0.1,0 -0.2,0.1 -0.2,0.2 v 1.7 c -0.1,0.1 0,0.2 0.1,0.2 z"
   id="path8" />
		<path
   d="m 23.8,38 h 1 c 0.1,0 0.2,-0.1 0.2,-0.2 0,-0.1 -0.1,-0.2 -0.2,-0.2 h -0.9 v -0.4 h 0.9 c 0.1,0 0.2,-0.1 0.2,-0.2 0,-0.1 -0.1,0 -0.2,0 h -0.9 v -0.4 h 0.9 c 0.1,0 0.2,-0.1 0.2,-0.2 0,-0.1 -0.1,-0.2 -0.2,-0.2 H 23.9 V 36 c 0,-0.1 -0.1,-0.2 -0.2,-0.2 -0.1,0 -0.2,0.1 -0.2,0.2 v 1.9 c 0.1,0.1 0.2,0.1 0.3,0.1 z"
   id="path9" />
		<path
   d="m 28.8,35.8 c -0.1,0 -0.2,0.1 -0.2,0.2 v 0.3 h -0.9 c -0.1,0 -0.2,0.1 -0.2,0.2 0,0.1 0.1,0.2 0.2,0.2 h 0.9 V 37 h -0.9 c -0.1,0 -0.2,0.1 -0.2,0.2 0,0.1 0.1,0.2 0.2,0.2 h 0.9 v 0.4 h -0.9 c -0.1,0 -0.2,0.1 -0.2,0.2 0,0.1 0.1,0.2 0.2,0.2 h 1 c 0.1,0 0.2,-0.1 0.2,-0.2 v -2 c 0.1,-0.1 0,-0.2 -0.1,-0.2 z"
   id="path10" />
		<path
   d="m 27.2,36.9 c 0,-0.1 0,-0.1 -0.1,-0.1 L 26.6,36.4 27.1,36 c 0.1,-0.1 0.1,-0.2 0,-0.2 -0.1,-0.1 -0.2,-0.1 -0.2,0 l -0.6,0.4 -0.6,-0.4 c -0.1,-0.1 -0.2,0 -0.2,0 -0.1,0.1 0,0.2 0,0.2 l 0.5,0.4 -0.5,0.4 c 0,0 -0.1,0.1 -0.1,0.1 0,0.1 0,0.1 0.1,0.1 l 0.5,0.4 -0.5,0.4 c -0.1,0.1 -0.1,0.2 0,0.2 0,0.1 0.1,0.1 0.1,0.1 0,0 0.1,0 0.1,0 l 0.6,-0.5 0.6,0.5 c 0,0 0,0 0.1,0 0.1,0 0.1,0 0.1,-0.1 0.1,-0.1 0,-0.2 0,-0.2 L 26.6,37.4 27.1,37 c 0.1,0 0.1,0 0.1,-0.1 z m -0.9,0.3 -0.4,-0.3 0.4,-0.3 0.4,0.3 z"
   id="path11" />
		<path
   d="m 28.8,38.6 h -5 c -0.1,0 -0.2,0.1 -0.2,0.2 v 2.9 c 0,0.1 0.1,0.2 0.2,0.2 0.1,0 0.2,-0.1 0.2,-0.2 V 39 h 4.7 v 2.7 c 0,0.1 0.1,0.2 0.2,0.2 0.1,0 0.2,-0.1 0.2,-0.2 v -2.8 c -0.2,-0.3 -0.2,-0.3 -0.3,-0.3 z"
   id="path12" />
		<path
   d="m 28.1,39.2 c -0.1,0 -0.2,0.1 -0.2,0.2 v 1.3 h -1.5 v -0.4 h 1 c 0.1,0 0.2,-0.1 0.2,-0.2 v -0.8 c 0,-0.1 -0.1,-0.2 -0.2,-0.2 h -2.3 c -0.1,0 -0.2,0.1 -0.2,0.2 v 0.8 c 0,0.1 0.1,0.2 0.2,0.2 h 1 v 0.4 h -1.5 v -1.3 c 0,-0.1 -0.1,-0.2 -0.2,-0.2 -0.1,0 -0.2,0.1 -0.2,0.2 v 1.5 c 0,0.1 0.1,0.2 0.2,0.2 h 1.7 v 0.4 h -1.7 c -0.1,0 -0.2,0.1 -0.2,0.2 0,0.1 0.1,0.2 0.2,0.2 h 1.9 c 0.1,0 0.2,-0.1 0.2,-0.2 V 41 h 1.7 c 0.1,0 0.2,-0.1 0.2,-0.2 v -1.5 c -0.1,0 -0.2,-0.1 -0.3,-0.1 z M 25.3,40 v -0.4 h 2 V 40 Z"
   id="path13" />
		<path
   d="M 26,0 C 11.7,0 0,11.6 0,26 0,40.4 11.7,52 26,52 40.4,52 52,40.4 52,26 52,11.6 40.4,0 26,0 Z M 44,44 C 39.4,48.6 33,51.4 26,51.4 19,51.4 12.6,48.6 8,44 3.4,39.4 0.6,33 0.6,26 0.6,19 3.5,12.6 8,8 12.6,3.4 19,0.6 26,0.6 c 7,0 13.4,2.8 18,7.4 4.6,4.6 7.5,11 7.5,18 0,7 -2.9,13.4 -7.5,18 z"
   id="path14" />
		<path
   d="M 26,1.4 C 12.4,1.4 1.4,12.4 1.4,26 1.4,39.6 12.4,50.7 26,50.7 39.6,50.7 50.7,39.7 50.7,26 50.7,12.3 39.6,1.4 26,1.4 Z M 43.2,43.2 C 38.8,47.6 32.7,50.3 26,50.3 19.3,50.3 13.2,47.6 8.8,43.2 4.5,38.8 1.7,32.7 1.7,26 1.7,19.3 4.4,13.2 8.8,8.8 13.3,4.5 19.3,1.7 26,1.7 c 6.7,0 12.8,2.7 17.2,7.1 4.4,4.4 7.1,10.5 7.1,17.2 0,6.7 -2.7,12.8 -7.1,17.2 z"
   id="path15" />
		<polygon
   points="5.8,25.3 5.2,24.6 7.3,23.3 7.4,22.6 4.9,24.2 3.4,22.3 3.4,23.1 5.1,25.2 3.2,25.1 3.2,25.6 7.1,25.9 7.2,25.4 "
   id="polygon15" />
		<polygon
   points="4.5,18.4 6,20 3.9,20.5 3.7,21.1 6.4,20.4 7.9,20.8 8.1,20.3 6.5,19.9 4.7,17.8 "
   id="polygon16" />
		<path
   d="m 7,17.4 c 0.5,0.3 1,0.4 1.5,0.3 C 9,17.6 9.4,17.3 9.7,16.8 10,16.2 10.1,15.7 9.8,15.1 9.6,14.6 9.3,14.3 8.7,14 8.2,13.7 7.8,13.6 7.3,13.7 c -0.6,0.1 -1,0.4 -1.3,1 -0.3,0.6 -0.4,1.2 -0.1,1.7 0.3,0.4 0.6,0.8 1.1,1 z M 6.5,14.9 c 0.2,-0.4 0.5,-0.6 0.9,-0.7 0.4,-0.1 0.8,0 1.2,0.2 0.4,0.2 0.7,0.5 0.9,0.8 0.2,0.4 0.2,0.7 -0.1,1.1 C 9.2,16.7 8.8,17 8.5,17 8.1,17 7.8,17 7.4,16.7 6.9,16.4 6.6,16.1 6.5,15.8 6.3,15.6 6.3,15.3 6.5,14.9 Z"
   id="path16" />
		<polygon
   points="10.2,9.5 8,11.9 8.4,12.2 9.3,11.2 11.9,13.6 12.2,13.2 9.6,10.8 10.5,9.9 "
   id="polygon17" />
		<path
   d="m 13.5,11.2 c 0.5,0.1 1,0 1.5,-0.4 0.5,-0.4 0.8,-0.9 0.8,-1.4 0,-0.5 -0.2,-1 -0.5,-1.5 C 15,7.5 14.6,7.2 14.2,7 13.7,6.8 13.1,6.9 12.5,7.4 12,7.8 11.7,8.3 11.7,8.9 c 0,0.5 0.2,0.9 0.5,1.4 0.5,0.4 0.9,0.7 1.3,0.9 z M 12.9,7.8 c 0.3,-0.2 0.7,-0.3 1.1,-0.2 0.4,0.1 0.7,0.3 0.9,0.7 0.3,0.4 0.4,0.7 0.4,1.1 0,0.4 -0.1,0.7 -0.5,1 -0.4,0.3 -0.8,0.4 -1.1,0.3 C 13.3,10.6 13,10.4 12.8,10 12.5,9.5 12.3,9.1 12.4,8.8 c 0,-0.5 0.2,-0.8 0.5,-1 z"
   id="path17" />
		<path
   d="m 19.1,7.8 c 0.4,0.4 0.9,0.5 1.5,0.3 0.6,-0.2 1,-0.6 1.1,-1.1 0,-0.3 0,-0.7 -0.1,-1.1 L 20.9,3.8 20.4,4 21.1,6.3 C 21.2,6.6 21.2,6.8 21.2,7 21.1,7.3 20.9,7.6 20.4,7.7 20,7.8 19.7,7.7 19.5,7.5 19.3,7.3 19.2,7.1 19.1,6.9 L 18.4,4.6 H 18 l 0.6,2.1 c 0.1,0.5 0.3,0.9 0.5,1.1 z"
   id="path18" />
		<polygon
   points="26.6,7.1 26.4,3.2 25.9,3.2 26,6.4 23.9,3.3 23.2,3.3 23.5,7.3 24,7.3 23.8,4.1 26,7.1 "
   id="polygon18" />
		<polygon
   points="28.6,3.4 28.1,7.3 28.6,7.3 29.1,3.4 "
   id="polygon19" />
		<polygon
   points="31.2,7.9 31.7,8 34.2,4.7 33.6,4.5 31.6,7.4 31.5,3.8 30.9,3.7 "
   id="polygon20" />
		<polygon
   points="36.8,9.9 34.7,8.7 35.3,7.5 37.2,8.6 37.4,8.2 35.5,7.1 36.1,6.1 38.2,7.2 38.4,6.8 35.9,5.4 34,8.9 36.5,10.3 "
   id="polygon21" />
		<path
   d="M 38,11.4 39.1,10.1 40,11 c 0.2,0.1 0.3,0.3 0.3,0.4 0.1,0.2 0,0.4 -0.1,0.6 l -0.4,0.5 c -0.1,0.1 -0.2,0.2 -0.2,0.2 0,0.1 0,0.1 -0.1,0.1 l 0.5,0.5 0.1,-0.1 c 0,-0.1 0,-0.2 0,-0.3 0,-0.1 0.1,-0.2 0.2,-0.3 l 0.3,-0.4 c 0.1,-0.2 0.2,-0.3 0.2,-0.5 0,-0.1 0,-0.3 -0.1,-0.4 0.2,0.1 0.4,0.1 0.5,0 0.2,0 0.3,-0.2 0.5,-0.3 C 42,10.7 42.1,10.3 41.9,9.9 41.8,9.7 41.7,9.5 41.4,9.3 L 40.1,8.1 37.4,11 Z m 2.4,-2.5 0.9,0.9 c 0.1,0.1 0.2,0.2 0.3,0.3 0.1,0.2 0,0.4 -0.2,0.6 C 41.2,10.9 41,11 40.9,11 40.7,11 40.6,10.9 40.4,10.7 L 39.5,9.9 Z"
   id="path21" />
		<path
   d="m 41.9,15.2 c -0.2,-0.4 -0.3,-0.7 -0.2,-1 0.1,-0.2 0.2,-0.3 0.4,-0.4 l -0.3,-0.4 c -0.4,0.2 -0.6,0.5 -0.6,0.9 -0.1,0.4 0,0.8 0.3,1.2 0.2,0.3 0.5,0.6 0.8,0.7 0.3,0.2 0.7,0.1 1,-0.1 0.3,-0.2 0.4,-0.5 0.5,-0.8 0,-0.2 0,-0.4 -0.1,-0.6 l -0.2,-0.5 c -0.1,-0.3 -0.2,-0.6 -0.2,-0.7 0,-0.2 0.1,-0.3 0.2,-0.4 C 43.7,13 43.8,13 44,13 c 0.2,0 0.4,0.2 0.5,0.4 0.2,0.3 0.3,0.6 0.2,0.8 0,0.1 -0.2,0.3 -0.3,0.4 l 0.3,0.4 c 0.4,-0.3 0.6,-0.6 0.6,-0.9 0,-0.3 -0.1,-0.7 -0.3,-1 -0.2,-0.4 -0.5,-0.6 -0.8,-0.7 -0.3,-0.1 -0.6,0 -0.9,0.2 -0.3,0.2 -0.4,0.4 -0.4,0.7 0,0.2 0.1,0.4 0.2,0.7 l 0.2,0.5 c 0.1,0.3 0.2,0.5 0.2,0.6 0,0.1 -0.1,0.3 -0.3,0.4 -0.2,0.2 -0.5,0.2 -0.8,0 -0.3,0 -0.4,-0.1 -0.5,-0.3 z"
   id="path22" />
		<polygon
   points="46.9,16.8 46.7,16.3 43.1,17.9 43.3,18.4 "
   id="polygon22" />
		<polygon
   points="47.6,18.3 47.1,18.5 47.5,19.8 44.1,20.7 44.3,21.2 47.6,20.3 48,21.6 48.4,21.4 "
   id="polygon23" />
		<polygon
   points="48.9,25.6 46.9,24.6 48.7,23.3 48.7,22.7 46.4,24.4 44.8,24.5 44.9,25 46.5,24.9 48.9,26.2 "
   id="polygon24" />
		<polygon
   points="9,35.5 9.4,35.3 8.3,32.9 4.7,34.5 4.9,35 6.5,34.2 7.3,36 7.8,35.8 7,34 8.1,33.5 "
   id="polygon25" />
		<path
   d="M 11.1,37.5 C 10.7,37 10.2,36.7 9.6,36.7 c -0.5,0 -0.9,0.2 -1.3,0.5 -0.5,0.4 -0.8,0.8 -0.9,1.3 -0.1,0.5 0,1 0.4,1.5 0.4,0.5 0.9,0.8 1.5,0.8 0.5,0 1,-0.2 1.4,-0.5 0.4,-0.3 0.7,-0.7 0.8,-1.1 0.1,-0.6 0,-1.1 -0.4,-1.7 z M 11,38.9 c -0.1,0.4 -0.3,0.7 -0.7,1 -0.4,0.3 -0.7,0.4 -1.1,0.5 -0.4,0 -0.7,-0.1 -1,-0.5 C 7.9,39.5 7.8,39.1 7.9,38.8 8,38.3 8.2,38 8.5,37.8 c 0.4,-0.3 0.8,-0.5 1.2,-0.5 0.4,0 0.7,0.2 0.9,0.5 0.4,0.4 0.5,0.7 0.4,1.1 z"
   id="path25" />
		<path
   d="m 15,41.5 -1.5,1.9 c -0.2,0.2 -0.4,0.4 -0.5,0.5 -0.3,0.1 -0.7,0.1 -1,-0.2 -0.3,-0.2 -0.4,-0.5 -0.4,-0.8 0,-0.2 0.1,-0.4 0.3,-0.7 l 1.5,-1.9 -0.4,-0.4 -1.4,1.7 c -0.3,0.4 -0.5,0.7 -0.5,1 -0.1,0.5 0.1,1 0.6,1.4 0.5,0.4 1,0.5 1.5,0.3 0.3,-0.1 0.6,-0.4 0.9,-0.8 l 1.4,-1.7 z"
   id="path26" />
		<polygon
   points="14.8,46.1 15.2,46.3 16.6,43.4 17,47.2 17.6,47.4 19.3,43.8 18.8,43.6 17.4,46.5 17,42.8 16.5,42.5 "
   id="polygon26" />
		<path
   d="m 22.1,44.6 -1.5,-0.3 -0.8,3.9 1.5,0.3 c 0.7,0.1 1.2,0 1.6,-0.6 0.2,-0.3 0.4,-0.6 0.5,-1.1 0.1,-0.5 0.1,-1 -0.1,-1.4 C 23,45 22.6,44.7 22.1,44.6 Z m 0.6,2.2 c 0,0.1 -0.1,0.3 -0.1,0.4 -0.1,0.2 -0.2,0.4 -0.4,0.6 -0.2,0.2 -0.4,0.3 -0.6,0.3 -0.1,0 -0.3,0 -0.4,0 l -0.9,-0.2 0.6,-3 0.9,0.2 c 0.4,0.1 0.7,0.3 0.8,0.6 0.2,0.2 0.2,0.6 0.1,1.1 z"
   id="path27" />
		<polygon
   points="25.5,47.2 27.7,47.1 27.6,46.7 25.5,46.7 25.5,45.5 27.8,45.5 27.8,45 24.9,45 25,49 27.9,48.9 27.9,48.5 25.5,48.5 "
   id="polygon27" />
		<path
   d="m 31.9,44.7 c -0.4,-0.3 -0.8,-0.4 -1.4,-0.3 l -1.5,0.4 0.9,3.8 1.5,-0.4 c 0.7,-0.2 1,-0.6 1.2,-1.2 0.1,-0.4 0.1,-0.8 0,-1.2 -0.1,-0.4 -0.4,-0.8 -0.7,-1.1 z m 0.2,2.5 c -0.1,0.2 -0.2,0.4 -0.4,0.5 -0.1,0.1 -0.2,0.1 -0.4,0.2 l -0.9,0.2 -0.7,-3 0.9,-0.2 c 0.4,-0.1 0.8,0 1,0.2 0.2,0.2 0.4,0.6 0.6,1 0,0.1 0,0.3 0.1,0.4 -0.1,0.3 -0.1,0.5 -0.2,0.7 z"
   id="path28" />
		<path
   d="m 36.5,42 c 0.1,0.3 0.1,0.5 0.1,0.7 -0.1,0.1 -0.3,0.3 -0.5,0.6 l 0.2,0.3 0.7,-0.6 1.5,2.3 0.4,-0.3 -2.1,-3.2 z"
   id="path29" />
		<path
   d="m 41.5,40.5 c -0.1,0 -0.3,0 -0.5,0.1 0,-0.2 0.1,-0.3 0.1,-0.4 0,-0.2 -0.1,-0.4 -0.3,-0.5 -0.2,-0.2 -0.4,-0.3 -0.7,-0.3 -0.3,0 -0.6,0.1 -0.8,0.4 -0.3,0.3 -0.4,0.5 -0.4,0.8 0,0.3 0.1,0.5 0.3,0.8 0.2,0.2 0.3,0.3 0.5,0.3 0.1,0 0.2,0 0.4,-0.1 C 40,41.8 40,42 40,42.2 c 0,0.2 0.1,0.4 0.3,0.5 0.3,0.3 0.6,0.4 0.9,0.4 0.3,0 0.6,-0.2 0.9,-0.4 0.3,-0.3 0.5,-0.6 0.5,-0.9 0,-0.3 -0.1,-0.6 -0.4,-0.8 -0.3,-0.4 -0.5,-0.5 -0.7,-0.5 z m -1.6,0.6 c -0.2,0 -0.3,0 -0.4,-0.2 -0.1,-0.1 -0.2,-0.3 -0.2,-0.4 0,-0.2 0.1,-0.3 0.2,-0.5 0.2,-0.2 0.3,-0.3 0.5,-0.2 0.2,0 0.3,0.1 0.4,0.2 0.1,0.1 0.2,0.3 0.2,0.4 0,0.2 -0.1,0.3 -0.2,0.5 -0.1,0.1 -0.3,0.2 -0.5,0.2 z m 1.9,1.2 c -0.2,0.2 -0.4,0.3 -0.6,0.3 -0.2,0 -0.4,-0.1 -0.5,-0.2 -0.2,-0.2 -0.2,-0.3 -0.2,-0.5 0,-0.2 0.1,-0.4 0.3,-0.5 0.2,-0.2 0.4,-0.3 0.6,-0.3 0.2,0 0.4,0.1 0.6,0.2 0.2,0.2 0.2,0.4 0.2,0.6 -0.2,0 -0.3,0.2 -0.4,0.4 z"
   id="path30" />
		<path
   d="m 43.9,36.9 c -0.3,-0.2 -0.7,-0.4 -1,-0.5 -0.5,-0.1 -1,0.1 -1.3,0.5 -0.2,0.3 -0.3,0.7 -0.2,1 0.1,0.3 0.3,0.6 0.6,0.8 0.3,0.2 0.6,0.3 0.9,0.2 0.3,0 0.6,-0.2 0.8,-0.5 0.1,-0.2 0.2,-0.3 0.2,-0.5 0,-0.2 0,-0.3 -0.1,-0.5 0.4,0.4 0.7,0.7 0.8,1 0.1,0.2 0,0.5 -0.1,0.6 -0.1,0.1 -0.2,0.2 -0.3,0.2 -0.2,0.1 -0.4,0.1 -0.6,-0.1 l -0.3,0.4 c 0.2,0.2 0.5,0.2 0.8,0.2 0.3,0 0.5,-0.2 0.7,-0.5 0.3,-0.5 0.3,-1 -0.1,-1.5 -0.1,-0.2 -0.4,-0.5 -0.8,-0.8 z m -0.5,1.3 c -0.1,0.2 -0.3,0.3 -0.5,0.3 -0.2,0 -0.4,0 -0.6,-0.2 -0.2,-0.2 -0.4,-0.3 -0.4,-0.5 -0.1,-0.2 0,-0.4 0.1,-0.6 0.1,-0.2 0.3,-0.3 0.5,-0.3 0.2,0 0.4,0 0.7,0.2 0.2,0.2 0.4,0.4 0.4,0.6 0,0.2 -0.1,0.4 -0.2,0.5 z"
   id="path31" />
		<path
   d="M 45.5,34.3 C 45.2,34 45,33.7 44.8,33.4 44.6,33.1 44.5,32.8 44.4,32.7 L 44,32.5 43,35 l 0.4,0.2 0.9,-2 c 0.2,0.4 0.4,0.8 0.7,1.2 0.5,0.7 1.1,1.2 1.7,1.6 l 0.2,-0.5 C 46.6,35.3 46.3,35.1 46.2,35 46,34.8 45.7,34.6 45.5,34.3 Z"
   id="path32" />
		<path
   d="m 43.3,23.7 c -0.1,-0.4 -0.1,-0.8 -0.2,-1.2 0,0 0,0 0,-0.1 C 43,21.9 42.9,21.4 42.7,20.8 40.5,13.7 33.9,8.5 26,8.5 16.4,8.5 8.5,16.4 8.5,26 c 0,0.3 0,0.5 0,0.8 0.5,9.3 8.1,16.7 17.5,16.7 9.7,0 17.5,-7.8 17.5,-17.5 0,-0.4 0,-0.7 -0.1,-1.1 0,-0.1 0,-0.3 0,-0.4 0,-0.3 0,-0.5 -0.1,-0.8 z m -0.4,0.8 c 0.3,0.1 0.2,0.4 0,0.5 -0.1,0.1 -0.4,0 -0.4,-0.2 0,-0.2 0.2,-0.4 0.4,-0.3 z m -0.3,-1 c 0.5,0.7 -0.6,0.2 -0.8,-0.1 -0.1,-0.3 0.5,-0.3 0.8,0.1 z m -0.1,2.1 c 0.1,0.2 -0.3,0.3 -0.5,0 -0.1,-0.3 0.3,-0.6 0.5,0 z m -0.7,-0.8 c -0.3,0.2 -0.6,-0.1 -0.6,-0.3 0.1,-0.3 0.3,-0.6 0.6,-0.4 0.4,0.4 0.3,0.5 0,0.7 z m 0.5,-2.1 c -0.3,0 -0.5,-0.2 -0.6,-0.6 -0.1,-0.5 0.4,-0.4 0.6,-0.1 0.2,0.2 0.3,0.7 0,0.7 z m -0.8,-3.9 c 0.3,0.1 0.2,0.4 0,0.4 -0.2,0 -0.4,0 -0.4,-0.2 0,-0.2 0.2,-0.2 0.4,-0.2 z m 0,1.6 c 0.1,-0.4 0.2,-0.5 0.4,-0.2 0.2,0.4 0.5,0.4 0.2,0.8 -0.2,0.3 -0.5,0.3 -0.8,0.1 -0.4,-0.1 0.1,-0.3 0.2,-0.7 z M 41,21.6 c 0.1,0.2 0,0.4 0,0.6 0,0.2 0,0.4 0.1,0.6 0.1,0.3 -0.1,0.4 -0.2,0.2 -0.1,-0.1 -0.2,-0.2 -0.3,-0.2 -0.1,0 -0.2,-0.2 -0.1,-0.4 0.1,-0.2 0,-0.4 -0.1,-0.6 -0.1,-0.2 0.1,-0.5 0.2,-0.5 0.2,0.1 0.3,0.1 0.4,0.3 z m 0.1,2.4 c -0.1,0.2 -0.2,0.3 -0.5,0.2 -0.4,-0.1 -0.4,-0.6 -0.1,-0.7 0.2,-0.1 0.6,0.3 0.6,0.5 z m -0.3,-3.9 c -0.1,0.3 -0.6,0.2 -0.8,0.1 -0.2,0 -0.3,-0.3 -0.1,-0.6 0.1,-0.2 0.3,-0.3 0.5,-0.3 0.3,0.2 0.5,0.5 0.4,0.8 z m -1.6,2.8 c -0.4,0.2 -0.5,-0.1 -0.5,-0.7 0,-0.7 0.7,-0.4 0.8,-0.1 0.3,0.4 0.1,0.6 -0.3,0.8 z m 0.3,0.8 c -0.2,0.1 -0.6,0.2 -0.5,-0.1 0,-0.3 0.3,-0.4 0.5,-0.3 0.4,0.1 0.1,0.3 0,0.4 z m -8.8,0.1 c -0.4,0 -0.9,-0.3 -0.9,-0.3 -0.3,-0.3 -0.4,-0.7 -0.5,-1.1 0,-0.4 0,-0.9 0,-1.2 0,0 0,0 0,0 0.1,-0.1 0.2,-0.3 0.4,-0.3 0,0 0.4,-0.1 0.5,0.3 0,0.1 0.1,0.3 0.1,0.4 -0.2,0.2 -0.3,0.5 -0.2,0.8 0.1,0.2 0.3,0.2 0.5,-0.1 0.1,-0.1 0.1,-0.3 0.1,-0.4 0,0 0,0 0,0 0.5,-0.1 0.6,-0.2 0.8,0.1 0.2,0.4 0.4,0.4 0.7,0.4 0.1,0 0.2,0 0.3,0 -0.1,0.1 -0.1,0.2 -0.2,0.3 -0.2,0.6 -0.3,0.7 -0.6,0.9 -0.3,0.2 -0.7,0.2 -1,0.2 z m 1,0.7 c 0.1,0.1 -0.2,0.2 -0.3,0.2 -0.1,0 -0.2,0.2 -0.4,0.2 -0.3,0 -0.3,-0.4 -0.2,-0.5 0,-0.1 0.2,-0.2 0.4,-0.2 0,0.1 0.5,0.1 0.5,0.3 z m -7.5,-1 c 0.1,0.1 0.1,0.3 0,0.4 -0.1,0.1 -0.2,0.2 -0.1,0.3 0,0.1 0.1,0.2 0,0.3 -0.1,0.1 0,0.3 0.1,0.3 0.1,0.1 0.2,0.5 0,0.5 -0.2,0.1 -0.3,0.3 -0.2,0.5 0.1,0.1 0.1,0.3 0,0.4 -0.1,0.1 -0.1,0.2 0,0.3 0,0.2 0.1,0.6 -0.2,0.5 -0.3,0 -0.2,-0.4 -0.4,-0.5 C 23.2,26.4 23,26.4 22.9,26.2 22.8,26 22.7,25.7 23,25.5 c 0.3,-0.2 0.5,-0.1 0.5,-0.4 0,-0.3 -0.2,-0.4 -0.4,-0.4 -0.2,0.1 -0.5,-0.3 -0.8,0 -0.1,0.1 -0.7,0.5 -0.9,-0.3 -0.2,-0.7 0.4,-1.1 0.6,-0.9 0,0 0.3,0.2 0.5,0.2 0.2,-0.1 0.3,-0.1 0.6,0.1 0.3,0.2 0.6,0 0.6,-0.3 0,-0.3 0.2,-0.4 0.1,-0.7 0,-0.3 0.2,-0.4 0.4,-0.3 0.2,0.1 0.3,0.4 0.1,0.6 -0.1,0.2 -0.2,0.3 -0.1,0.4 z M 20,23.7 c 0.1,-0.4 0.4,-0.4 0.6,-0.3 0.1,0.1 0.1,0.2 0,0.5 -0.2,0.3 0,0.6 -0.2,0.6 C 20,24.5 19.9,24 20,23.7 Z m 0,-1.5 c 0.1,-0.1 0.2,0 0.4,0.1 0.2,0.2 -0.1,0.4 -0.2,0.3 C 20,22.5 19.8,22.3 20,22.2 Z m 0.4,-0.5 c -0.2,-0.1 -1,0.1 -1,0.1 0,0 -0.3,0.2 -0.1,0.5 0.1,0.2 0.2,0.3 0.2,0.4 -0.1,0 -0.4,-0.2 -0.6,-0.2 -0.1,-0.1 -0.3,-0.1 -0.5,-0.2 0,-0.1 0,-0.1 0,-0.2 0,-0.3 -0.1,-0.9 0.1,-1.1 0.3,-0.3 0.6,-0.4 0.7,-0.2 0,0 0,0.1 0.1,0.1 0,0 -0.1,0 -0.1,0 -0.3,0.2 -0.5,0.7 -0.2,0.7 0.2,0 0.5,-0.1 0.7,-0.3 0.1,0.1 0.3,0.2 0.5,0.1 0.6,0 0.8,-0.3 1,-0.5 0.2,-0.2 0.5,-0.3 0.7,0 0,0 0,0 0.1,0.1 v 0 c 0,0 0.1,0.1 0.1,0.4 0,0.2 0,0.4 0.2,0.4 0.1,0.1 0.4,0.1 0.6,-0.1 v 0 c 0,0 0.3,-0.2 0.4,0 0,0.2 0,0.4 0,0.5 0,0.1 0,0.1 0,0.2 0,0 0,0 0,0 -0.1,0.4 -0.1,0.5 -0.5,0.6 -0.3,0 -0.8,-0.2 -1.4,-0.3 v 0 c 0,0 -0.4,-0.1 -0.5,-0.4 -0.2,-0.2 -0.3,-0.5 -0.5,-0.6 z m -1.1,2.2 c -0.1,0 -0.5,-0.1 -0.6,-0.3 0,-0.2 0.2,-0.3 0.4,-0.2 0.7,0.2 0.4,0.5 0.2,0.5 z M 15,22.6 c -0.2,0.2 -0.2,0.4 -0.3,0.5 -0.1,0.1 -0.3,0.1 -0.3,0 0,-0.1 -0.1,-0.1 -0.3,-0.1 -0.2,0 -0.3,0 -0.3,-0.1 -0.1,-0.1 -0.1,-0.3 0,-0.4 0.1,-0.1 0.3,-0.1 0.4,-0.1 0.2,0 0.3,-0.1 0.5,-0.2 0.2,-0.1 0.3,-0.1 0.4,0 0.2,0.1 0.1,0.3 -0.1,0.4 z m 0,1.7 c -0.1,0.1 -0.4,0.2 -0.6,0 -0.2,-0.2 0.1,-0.5 0.3,-0.6 0.2,-0.1 0.3,-0.1 0.4,0.1 0.2,0.1 0.1,0.3 -0.1,0.5 z m -3,-3.2 c 0,0.1 0,0.2 -0.1,0.2 -0.1,0 -0.2,0.1 -0.2,0.2 -0.1,0.1 -0.2,0.1 -0.3,0.1 -0.1,0 -0.1,-0.1 -0.2,-0.2 -0.1,-0.1 -0.1,-0.3 0,-0.4 0.1,-0.1 0.2,-0.1 0.3,-0.1 0.2,-0.1 0.5,0.1 0.5,0.2 z m 0,-0.9 c 0.1,0.1 0,0.4 -0.2,0.3 -0.2,0 -0.2,-0.3 -0.3,-0.4 -0.1,-0.1 0.2,-0.3 0.5,0.1 z m -0.5,2 c 0.2,0 0.3,-0.1 0.5,-0.2 0.2,-0.2 0.3,0 0.2,0.1 0,0.1 -0.1,0.2 -0.1,0.3 0,0.1 -0.2,0.2 -0.3,0.2 -0.2,0 -0.3,0.1 -0.4,0.2 -0.2,0.1 -0.4,0 -0.4,-0.1 -0.1,-0.1 0,-0.2 0.1,-0.3 0,-0.2 0.2,-0.2 0.4,-0.2 z m 0.2,1.2 c 0,0.2 -0.2,0.3 -0.4,0.3 -0.2,0 -0.3,-0.1 -0.2,-0.3 0.1,-0.2 0.2,-0.2 0.4,-0.2 0.1,0 0.3,0 0.2,0.2 z M 11,25.3 c 0.1,-0.1 0.2,-0.2 0.3,-0.2 0.2,0 0.3,0 0.3,0 0.1,0.1 0.1,0.3 -0.1,0.4 -0.1,0.1 -0.4,0.1 -0.5,0.1 -0.1,0 -0.1,-0.3 0,-0.3 z m 0.5,-0.8 c -0.1,0 -0.4,0 -0.4,-0.1 -0.1,-0.1 0,-0.2 0.1,-0.3 0.1,-0.1 0.3,-0.1 0.4,-0.1 0.1,-0.1 0.2,-0.2 0.3,-0.2 0.1,-0.1 0.3,-0.1 0.4,-0.1 0.1,0 0.2,0.1 0.1,0.3 0,0.1 -0.1,0.2 -0.3,0.4 -0.2,0.1 -0.5,0.1 -0.6,0.1 z m 0.6,0.3 c 0,-0.1 0.1,-0.2 0.4,-0.1 0.2,0 0.3,0 0.3,-0.1 0,0 0.2,-0.1 0.2,0.1 0,0.2 -0.2,0.3 -0.3,0.4 -0.1,0.1 -0.3,0.2 -0.5,0.1 -0.1,-0.1 -0.1,-0.3 -0.1,-0.4 z m 0.7,-1.5 c -0.3,0.1 -0.4,-0.1 -0.5,-0.2 -0.1,-0.1 -0.1,-0.3 0.1,-0.4 0.1,-0.1 0.2,-0.2 0.3,-0.3 0.1,-0.1 0.3,-0.1 0.5,-0.1 0.1,0 0.1,0.3 0.2,0.5 -0.2,0.2 -0.4,0.4 -0.6,0.5 z M 12.5,21 c 0,-0.2 0.1,-0.2 0.2,-0.2 0,0 0.5,0.1 0.7,0.2 0.2,0.1 0.1,0.3 0,0.5 -0.1,0.2 -0.3,0.1 -0.6,0.2 -0.2,0 -0.2,-0.2 -0.2,-0.3 0,-0.1 0,-0.2 -0.1,-0.4 z m 1,-0.8 c -0.1,0.2 -0.3,0.1 -0.5,0.1 -0.1,0 -0.2,-0.2 -0.1,-0.3 0.1,-0.1 0.2,-0.2 0.3,-0.2 0.2,0 0.4,0.2 0.3,0.4 z m -0.4,-2.5 c -0.3,0.1 -0.4,-0.1 -0.4,-0.3 0,-0.2 0.1,-0.4 0.4,-0.3 0.4,0.2 0.3,0.5 0,0.6 z m -0.3,1.1 c 0,0.1 0.1,0.1 0,0.3 0,0.2 -0.2,0.1 -0.4,0 -0.2,-0.1 -0.3,-0.4 -0.2,-0.6 0.1,-0.2 0.2,-0.1 0.4,-0.1 0.1,0 0.2,0.3 0.2,0.4 z m 0.3,5 c 0.1,-0.3 0.2,-0.4 0.5,-0.5 0.2,0 0.3,0.1 0.3,0.2 0,0.1 -0.2,0.5 -0.4,0.6 -0.3,0.2 -0.5,0 -0.4,-0.3 z M 14,19.6 c 0,-0.1 0.1,-0.3 0.4,-0.1 0.2,0.3 0.3,0.5 0.5,0.7 0.2,0.2 0.1,0.6 -0.1,0.6 -0.2,0 -0.4,0 -0.5,-0.2 C 14.2,20.5 14.2,20.4 14.1,20.3 14,20.2 14,20.1 14,20 c 0,-0.1 0,-0.2 0,-0.4 z m 1,-1.1 c 0,0 0.3,0.1 0.5,0.2 0.2,0.1 0.2,0.3 -0.1,0.5 -0.2,0.2 -0.2,0.4 -0.3,0.5 -0.2,0.1 -0.3,-0.2 -0.2,-0.3 0,-0.1 0,-0.3 -0.1,-0.5 -0.1,-0.3 0.1,-0.5 0.2,-0.4 z m -1,3.1 c 0.1,0 0.3,-0.1 0.5,-0.2 0.2,-0.1 0.3,0 0.3,0.1 0,0.1 -0.1,0.2 -0.3,0.2 -0.1,0 -0.2,0.1 -0.3,0.2 -0.1,0.2 -0.3,0.1 -0.4,0 0,-0.1 -0.1,-0.3 0.2,-0.3 z m 1.3,-0.4 c 0.2,-0.1 0.3,-0.3 0.3,-0.4 0,-0.1 0.1,-0.3 0.3,-0.2 0.3,0.2 0,0.6 0,0.6 -0.1,0.2 0,0.4 -0.2,0.4 -0.2,0 -0.4,0 -0.5,-0.1 -0.1,0 -0.1,-0.1 0.1,-0.3 z M 16.5,20 c -0.2,0.1 -0.4,0 -0.4,0 -0.2,-0.1 -0.3,-0.1 -0.3,-0.3 0,-0.1 0,-0.2 0.2,-0.3 0.2,-0.1 0.2,-0.2 0.3,0 0.1,0.3 0.4,0.5 0.2,0.6 z m 0.3,0.8 c 0.2,0.1 0.1,0.5 -0.2,0.5 -0.2,0 -0.2,-0.3 -0.1,-0.4 0.1,-0.1 0.2,-0.1 0.3,-0.1 z m -1.1,2 c 0.1,-0.1 0.3,-0.1 0.5,0 0.2,0.1 0.2,0.1 0.2,0.2 0,0.1 -0.3,0.1 -0.4,0.2 -0.1,0.1 -0.1,0.1 -0.3,0.1 -0.1,0 -0.2,0 -0.2,-0.2 0,-0.2 0.1,-0.2 0.2,-0.3 z m 0.4,-0.9 c 0.1,-0.1 0.2,-0.1 0.4,-0.1 0.2,0 0.5,0.2 0.5,0.3 0,0.1 -0.1,0.2 -0.5,0.2 -0.4,0 -0.5,-0.3 -0.4,-0.4 z m 0.7,-2.8 c 0,-0.1 0.2,-0.2 0.4,-0.1 0,0 0.4,0.1 0.5,0.2 0,0.1 -0.2,0.2 -0.3,0.2 -0.1,0 -0.1,0.2 -0.4,0.2 -0.2,-0.1 -0.2,-0.4 -0.2,-0.5 z M 17,16.3 c 0.1,-0.2 0.2,-0.2 0.4,-0.1 0.1,0.1 0.2,0.6 0.1,0.8 0,0.2 -0.3,0.3 -0.5,0.2 -0.3,-0.2 -0.1,-0.7 0,-0.9 z m 0.3,4.7 c 0.2,-0.1 0.4,-0.1 0.4,0.1 0,0.1 0,0.2 0,0.2 0,0.2 0,0.3 -0.2,0.4 -0.2,0.1 -0.3,0.1 -0.4,0 -0.1,-0.1 0,-0.2 0,-0.3 0.1,-0.1 0.1,-0.2 0.2,-0.4 z m 0.1,1.5 c 0.2,-0.1 0.4,-0.3 0.4,-0.5 0,-0.1 0.2,-0.2 0.3,-0.1 0.1,0.2 0,0.5 -0.1,0.6 -0.1,0.2 -0.2,0.3 -0.5,0.3 -0.2,0 -0.4,0.1 -0.4,-0.1 -0.1,0 0.1,-0.1 0.3,-0.2 z m 0.4,-2.2 c -0.2,0.1 -0.4,-0.1 -0.4,-0.2 -0.1,-0.1 0,-0.2 0.1,-0.3 0.1,-0.1 0.2,-0.1 0.3,-0.1 0,0 0.3,0.1 0.4,0.2 0.1,0 0.1,0.2 -0.1,0.2 -0.1,0 -0.1,0.2 -0.3,0.2 z m -0.2,-1.9 c 0,-0.4 0.2,-0.6 0.5,-0.6 0.5,0.1 0.4,0.4 0.2,0.7 -0.2,0.2 -0.7,0.3 -0.7,-0.1 z m 0.7,-2.6 c 0.2,0.1 0.2,0.4 0,0.7 -0.2,0.3 -0.4,0 -0.4,-0.4 0.1,-0.3 0.2,-0.4 0.4,-0.3 z m 0.1,-1.4 c 0.3,-0.4 0.8,0.1 1,0.4 0.2,0.3 0,0.5 -0.7,0.5 -0.6,0.1 -0.5,-0.5 -0.3,-0.9 z m 0.7,2.2 c 0.4,0 0.2,0.4 0.1,0.7 -0.3,1.2 -0.6,0.1 -0.6,0.1 -0.4,-0.4 0.1,-0.8 0.5,-0.8 z m -0.3,3.3 c 0.1,-0.2 0.2,-0.2 0.3,-0.1 0.2,0.1 0.3,0.3 0,0.5 -0.2,0.1 -0.4,-0.2 -0.3,-0.4 z m 2.1,-4 c -0.1,0.2 -0.4,0.4 -0.7,0.2 -0.3,-0.2 0,-0.5 0.1,-0.7 0.1,-0.2 0.3,-0.2 0.5,0 0.1,0.1 0.2,0.3 0.1,0.5 z m 0,3.2 c 0,0.4 -0.3,0.4 -0.6,0.2 -0.2,-0.2 -0.1,-0.8 -0.1,-1.1 0,-0.3 0.2,-0.3 0.4,-0.1 0.4,0.2 0.3,0.6 0.3,1 z m -0.4,-2.4 c 0.3,0.1 0.3,0.3 0.2,0.5 -0.1,0.2 -0.3,0.2 -0.5,0 -0.3,-0.3 0,-0.6 0.3,-0.5 z m -0.1,3.5 c 0.3,-0.1 0.5,0.1 0.5,0.4 0,0.2 -0.2,0.3 -0.4,0.4 -0.2,0.1 -0.4,0 -0.5,-0.3 0,-0.2 0.2,-0.3 0.4,-0.5 z M 21.6,17 c -0.3,0.1 -0.3,-0.6 -0.2,-0.9 0.1,-0.4 0.4,-0.4 0.6,-0.1 0.3,0.6 -0.1,1 -0.4,1 z m -0.1,2.3 c -0.2,-0.1 -0.1,-0.5 0.1,-0.6 0.1,0 0.3,0 0.3,0.2 0,0.3 -0.2,0.5 -0.4,0.4 z m 3.6,-3.1 c 0.4,0.6 -0.3,0.9 -0.6,0.9 -0.3,0 0,-0.5 0.1,-0.8 0,-0.4 0.3,-0.4 0.5,-0.1 z m -0.4,-1.7 c 0.3,-0.2 0.4,0.2 0.6,0.5 0.1,0.3 0.1,0.4 -0.3,0.4 -0.4,0 -0.4,-0.1 -0.4,-0.4 0,-0.2 -0.1,-0.3 0.1,-0.5 z m -0.3,2.9 c 0.1,0 0.2,0.2 0.2,0.3 -0.1,0.2 -0.2,0.2 -0.4,0.2 -0.2,0 -0.2,-0.2 -0.1,-0.4 0,-0.2 0.1,-0.2 0.3,-0.1 z m -1.1,-1.5 c -0.5,0 0,-0.8 0.2,-1 0.2,-0.3 0.4,-0.1 0.5,0.2 0.2,0.7 -0.2,0.7 -0.7,0.8 z m 0.5,1.1 c -0.1,0.3 -0.4,0.3 -0.8,-0.1 -0.3,-0.4 0.5,-0.7 0.7,-0.6 0.3,0.1 0.3,0.4 0.1,0.7 z m -0.2,1.7 c -0.3,0.1 -0.4,-0.1 -0.4,-0.3 0,-0.2 0.2,-0.4 0.4,-0.3 0.4,0.1 0.3,0.5 0,0.6 z m -0.7,1.1 c 0.3,0.1 0.2,0.5 0.1,0.6 -0.1,0.1 -0.5,0 -0.5,-0.3 0,-0.3 0.1,-0.3 0.4,-0.3 z m -0.4,-1.5 c 0.1,0 0.2,0 0.3,0.2 0.1,0.3 -0.2,0.5 -0.4,0.4 -0.1,-0.1 0,-0.5 0.1,-0.6 z m 0.3,-0.6 c -0.1,0 -0.3,-0.1 -0.3,-0.2 0,-0.1 0.1,-0.2 0.3,-0.2 0.2,0 0.3,0.2 0.3,0.3 0,0 -0.1,0.1 -0.3,0.1 z m 0,-3.5 c -0.6,-0.1 -0.5,-0.4 -0.3,-0.7 0.2,-0.3 0.5,-0.5 0.7,-0.3 0.7,0.5 0.2,1.1 -0.4,1 z m -0.2,0.4 c 0.2,0 0.3,0.1 0.4,0.3 0.1,0.2 -0.1,0.4 -0.3,0.5 -0.2,0.1 -0.4,0 -0.5,-0.2 -0.1,-0.2 0,-0.4 0.1,-0.5 0,0 0.1,-0.1 0.3,-0.1 z m 1.7,7.3 C 24.1,22 24,21.8 24,21.7 c 0,-0.1 0.1,-0.3 0.2,-0.3 0.3,0.1 0.2,0.3 0.1,0.5 z m 0,-1.7 c -0.1,-0.2 0,-0.5 0.2,-0.4 0.3,0.2 0.2,0.6 0.1,0.7 -0.1,0 -0.3,-0.2 -0.3,-0.3 z m 0.3,-1 c -0.4,0.1 -0.4,-0.3 -0.4,-0.5 0.1,-0.3 0.2,-0.4 0.4,-0.3 0.1,0 0.1,0.1 0.4,0.2 0.2,0.1 0,0.5 -0.4,0.6 z m 0.6,-1.8 c 0.2,-0.3 0.5,-0.2 0.6,0 0.2,0.5 -0.3,0.8 -0.6,0.7 -0.4,0 -0.2,-0.4 0,-0.7 z m 3.1,-1.9 c 0.1,0.4 0,0.6 -0.2,0.8 -0.1,0.1 -0.2,-0.1 -0.3,-0.4 v 0 c 0,0 -0.1,-0.4 -0.5,-0.3 -0.4,0.1 -0.5,-0.4 -0.4,-0.8 0,-0.4 0.2,-0.6 0.4,-0.5 0.4,0.1 0.3,0.6 0.3,0.7 0,0.1 0.3,0.1 0.3,0.1 v 0 c 0,0 0.3,-0.1 0.4,0.4 z m 9.8,1.8 c 0.1,0.2 0.2,0.4 0.1,0.5 -0.1,0.2 -0.4,0.2 -0.6,0.1 -0.2,-0.1 -0.4,-0.4 -0.2,-0.7 0.1,-0.3 0.6,-0.1 0.7,0.1 z m -0.4,-1.5 c 0.1,-0.1 0.3,-0.1 0.3,0.1 0,0.2 0,0.3 -0.2,0.4 0,0 -0.2,0.1 -0.3,0 0,-0.2 0.1,-0.4 0.2,-0.5 z m -0.1,3.7 c 0.1,-0.1 0.3,-0.2 0.4,0.1 0.2,0.4 0,0.7 -0.3,0.6 -0.4,-0.2 -0.2,-0.6 -0.1,-0.7 z m -0.2,-0.6 c -0.4,0.3 -0.6,0 -0.6,-0.4 0,-0.4 0.2,-0.4 0.5,-0.4 0.4,0.2 0.5,0.5 0.1,0.8 z m -0.3,-2.6 c -0.1,0.4 -0.4,0.1 -0.7,0 -0.3,-0.1 -0.2,-0.4 0,-0.7 0.2,-0.4 0.6,-0.5 0.8,-0.1 0.4,0.3 0,0.4 -0.1,0.8 z m -0.9,-1.1 c -0.2,0.1 -0.4,-0.1 -0.4,-0.3 0,-0.2 0.2,-0.2 0.4,-0.1 0.1,0.1 0.1,0.3 0,0.4 z m -0.1,1.6 c 0.3,0 0.4,0.1 0.4,0.4 0,0 0.1,0.3 -0.2,0.3 -0.3,0 -0.5,-0.1 -0.6,-0.3 0,-0.2 0.1,-0.4 0.4,-0.4 z m -0.9,2.7 c -0.2,-0.2 0,-0.5 0.2,-0.4 0.5,0.2 0.8,0.6 0.6,1.2 -0.2,0.5 -0.6,0.4 -0.5,0.1 0,-0.4 -0.1,-0.7 -0.3,-0.9 z M 35,21.8 c 0.1,-0.1 0.3,-0.1 0.3,0 0.1,0.3 -0.1,0.4 -0.3,0.3 -0.2,0 -0.1,-0.2 0,-0.3 z m -0.2,-0.4 c -0.2,-0.1 0,-0.3 0.1,-0.3 0.1,-0.1 0.3,0 0.3,0.1 0.1,0.2 -0.2,0.3 -0.4,0.2 z m 1,-3.3 c 0,0.3 -0.2,0.5 -0.8,0.3 -0.5,-0.2 0,-0.9 0.3,-0.9 0.3,-0.1 0.4,0.2 0.5,0.6 z m -0.9,1.8 c 0.3,0.5 0,0.9 -0.4,1 C 34,21 34,20.6 34.2,20.5 c 0.2,-0.1 0.2,-0.2 0.3,-0.5 0.1,-0.4 0.3,-0.3 0.4,-0.1 z m -0.7,-1.4 c 0,0.2 -0.2,0.3 -0.6,0.1 -0.3,-0.2 -0.5,-0.5 -0.4,-0.8 0.1,-0.3 0.3,-0.4 0.5,-0.3 0.6,0.2 0.5,0.8 0.5,1 z m -1,-1.6 c -0.1,0.1 -0.3,0.1 -0.5,0.2 -0.1,0.1 -0.2,0.2 -0.3,0.3 -0.1,0.1 -0.3,0.2 -0.4,0.2 -0.1,0 -0.2,-0.1 -0.2,-0.3 0,-0.1 0.1,-0.3 0.3,-0.5 0.2,-0.2 0.5,-0.3 0.7,-0.3 0.2,0 0.4,0 0.5,0.1 0.1,0.1 0,0.2 -0.1,0.3 z M 32,15 c 0.2,-0.2 0.4,0 0.4,0.2 0,0 0.3,0.5 -0.2,0.8 -0.5,0.3 -0.3,-0.2 -0.3,-0.2 0.2,-0.3 -0.1,-0.6 0.1,-0.8 z m -0.1,-0.6 c -0.3,-0.3 0,-0.5 0.2,-0.7 0.3,-0.1 0.4,-0.1 0.6,0.1 0.5,0.5 -0.5,0.8 -0.8,0.6 z m 0.2,-1 c -0.6,0 -0.5,-0.2 -0.2,-0.8 0.3,-0.5 0.6,-0.2 0.8,-0.1 0.3,0.3 -0.1,0.8 -0.6,0.9 z m -0.3,6.4 c 0.3,0.3 -0.1,0.8 -0.4,0.7 -0.3,-0.1 -0.2,-0.5 -0.1,-0.7 0.2,-0.2 0.3,-0.2 0.5,0 z m -1.7,0.4 c -0.4,-0.3 0.5,-0.9 0.8,-1.2 0.3,-0.3 0.5,0 0.3,0.2 -0.2,0.2 -0.3,0.3 -0.3,0.6 0,0.7 -0.5,0.7 -0.8,0.4 z m -0.3,-3.5 c -0.3,-0.3 0.1,-0.5 0.3,-0.6 0.2,-0.1 0.5,0 0.6,0.1 0.2,0.1 0.2,0.4 -0.1,0.6 -0.2,0.3 -0.5,0.2 -0.8,-0.1 z m 0.9,1.6 c -0.3,0.1 -0.4,-0.3 -0.3,-0.6 0.1,-0.3 0.3,-0.3 0.5,-0.3 0.3,-0.1 0.2,0 0.5,0.2 0.3,0.2 0.3,0.6 0,0.6 -0.3,0 -0.4,0 -0.7,0.1 z m 0.7,-2.5 C 31.2,15.9 31,15.7 30.9,15.6 30.8,15.5 31,15.3 31,15.2 c 0.1,-0.2 0.4,-0.2 0.5,0 0.1,0.3 0.1,0.5 -0.1,0.6 z m -0.8,-3 c -0.4,-0.1 -0.3,-0.6 -0.2,-0.8 0.1,-0.3 0.3,-0.3 0.6,-0.2 0.3,0.1 0.4,0.2 0.3,0.6 0.1,0.3 -0.3,0.4 -0.7,0.4 z m 0.1,0.7 c 0.4,0 0.7,-0.2 0.5,0.5 -0.1,0.7 -0.4,0.5 -0.7,0.3 -0.3,-0.2 -0.6,-0.4 -0.5,-0.7 0.1,-0.3 0.4,-0.1 0.7,-0.1 z m -0.5,1.1 c 0,0 0.3,0.1 0.3,0.5 0,0.4 -0.2,0.6 -0.4,0.8 -0.3,0.1 -0.3,-0.5 -0.3,-0.8 0,-0.4 0.1,-0.5 0.4,-0.5 z m -0.6,-1.3 c -0.3,0 -0.4,-0.1 -0.3,-0.5 0.1,-0.4 0.4,-0.4 0.5,-0.2 0.4,0.7 -0.2,0.7 -0.2,0.7 z m -0.3,1.1 c 0,0.3 -0.1,0.5 -0.4,0.5 -0.3,-0.1 -0.5,-0.1 -0.5,-0.3 0,-0.2 0.2,-0.2 0.3,-0.5 0,-0.2 0,-0.5 0.3,-0.4 0.4,0.1 0.4,0.6 0.3,0.7 z m -0.1,1.9 c -0.2,0.2 -0.5,-0.2 -0.4,-0.6 0.1,-0.4 0.3,-0.5 0.4,-0.3 0.3,0.2 0.3,0.7 0,0.9 z m -0.7,-3.1 c -0.3,-0.1 -0.4,-0.6 -0.2,-0.8 0.2,-0.1 0.3,-0.1 0.5,0.1 0.2,0.3 -0.1,0.8 -0.3,0.7 z m -0.2,4.6 c -0.2,0.1 -0.3,0.4 -0.6,0.5 -0.3,0.1 -0.1,-0.6 0.1,-0.9 0.2,-0.3 0.5,-0.2 0.6,0 0.1,0 0.2,0.3 -0.1,0.4 z m -1.2,-0.9 c 0.1,-0.1 0.2,-0.1 0.3,0.1 0,0 0.1,0.1 -0.1,0.4 -0.1,0.3 -0.3,0.5 -0.6,0.4 -0.3,0 -0.2,-0.4 0,-0.5 0.2,-0.2 0.2,-0.3 0.4,-0.4 z m -1.2,-0.1 c -0.4,0 -0.4,-0.5 -0.2,-0.7 0.2,-0.2 0.3,-0.2 0.6,-0.1 0.2,0.1 0.3,0.2 0.3,0.5 0,0.3 -0.3,0.3 -0.7,0.3 z m 0,-2.7 c 0.2,-0.2 0.3,-0.1 0.4,-0.1 0.1,0.1 0.2,0.6 0,0.9 -0.2,0.3 -0.5,0.2 -0.6,-0.1 0,-0.2 0,-0.5 0.2,-0.7 z m -0.1,-0.5 c -0.4,0.2 -0.5,-0.2 -0.3,-0.7 0.2,-0.5 0.2,-0.4 0.7,-0.5 0.4,-0.1 0.4,0.1 0.5,0.5 0,0.4 -0.5,0.5 -0.9,0.7 z m -0.6,6.6 c 0,-0.2 0.1,-0.1 0.2,-0.1 0.1,0 0.2,0.2 0.2,0.4 0,0.3 -0.2,0.5 -0.3,0.5 -0.1,0 -0.2,-0.2 -0.2,-0.3 0,-0.1 0.1,-0.4 0.1,-0.5 z m 0.3,-1.5 c -0.2,-0.2 0.1,-0.3 0.3,-0.4 0.2,-0.1 0.3,-0.1 0.4,0.1 0.3,0.3 0.3,0.4 0.3,0.5 0,0.1 -0.2,0.1 -0.5,0.2 -0.4,0.1 -0.4,-0.2 -0.5,-0.4 z m 0.6,1.2 c 0,-0.2 0.1,-0.2 0.2,-0.3 0.2,-0.1 0.3,0 0.4,0.1 0.1,0.1 0.2,0.3 0.3,0.3 0.2,0.1 0.3,0 0.3,0.2 0,0.2 -0.3,0.3 -0.5,0.3 -0.2,0 -0.4,0 -0.6,-0.2 -0.1,0 -0.1,-0.2 -0.1,-0.4 z m 0.8,-0.7 c -0.1,-0.3 0,-0.6 0.3,-0.5 0.3,0.1 0.3,0.2 0.6,0.2 0.3,0 0.3,0.2 0.3,0.3 -0.1,0.1 -0.2,0.1 -0.5,0.2 -0.2,0.2 -0.5,0.1 -0.7,-0.2 z m 1,1.3 c 0.2,-0.3 0.1,-0.7 0.4,-0.8 0.4,-0.2 0.6,0.1 0.6,0.4 0.1,0.3 0.2,0.5 -0.4,0.8 -0.5,0.3 -0.8,-0.2 -0.6,-0.4 z M 28.7,19 c -0.3,-0.3 -0.3,-0.7 -0.1,-0.9 0.2,-0.2 0.3,-0.1 0.4,0.1 0,0 0.1,0.3 0.2,0.6 0,0.3 -0.2,0.5 -0.5,0.2 z M 29,16.9 c 0.2,-0.2 0.5,0.1 0.6,0.4 0,0 0.1,0.4 0.1,0.7 0,0.3 -0.1,0.4 -0.4,0.1 C 29,17.7 28.8,17.2 29,16.9 Z m 0.3,2.5 c 0.1,-0.1 0.2,-0.3 0.3,-0.5 0,-0.2 0.2,-0.3 0.3,-0.2 0.2,0.3 -0.1,0.7 -0.3,0.8 -0.2,0.1 -0.4,0 -0.3,-0.1 z m 3.2,4.4 c 0.2,0 0.3,0.2 0.2,0.4 -0.2,0.2 -0.5,0.1 -0.5,-0.1 0,-0.2 0,-0.3 0.3,-0.3 z m -0.4,-2.2 c -0.1,-0.2 -0.1,-0.4 0,-0.8 0.1,-0.4 0.3,-0.6 0.6,-0.3 0.3,0.3 0.1,0.9 0.1,0.9 -0.1,0.4 -0.6,0.4 -0.7,0.2 z m 0.2,-2.4 c 0,-0.4 0.2,-0.6 0.4,-0.5 0.6,0.2 0.5,0.6 0.2,1 -0.3,0.4 -0.7,-0.1 -0.6,-0.5 z m 1,0.4 c 0.1,-0.2 0.3,-0.2 0.3,-0.1 0.6,0.6 0,0.9 -0.4,0.8 -0.3,-0.1 0,-0.4 0.1,-0.7 z m 0,1 c 0.3,0.1 0.2,0.3 0.1,0.4 -0.2,0.1 -0.3,-0.1 -0.3,-0.2 0,0 0.1,-0.2 0.2,-0.2 z m -0.1,3.3 c 0,0 0.3,-1 0.5,-1.3 0,0 0,-0.1 0.1,-0.1 0.1,0 0.3,0 0.4,0 0.5,-0.1 0.6,-0.2 0.8,0.1 0.2,0.4 0.6,0.7 1.1,0.6 v 0 c -0.1,0 -0.2,0.1 -0.3,0.1 -0.7,0.3 -0.7,0.3 -1.3,0.4 -0.6,0.1 -0.3,0.1 -1.1,0.2 -0.1,0 -0.1,0 -0.2,0 z m 2.5,-1.5 c 0.1,-0.3 0.6,-0.4 0.7,-0.2 0,0 0.1,0.2 0,0.4 -0.1,0.2 -0.8,0.1 -0.7,-0.2 z m 0.6,-1.1 C 36,21.4 35.9,21.2 35.9,21 c 0,-0.2 0.2,-0.4 0.4,-0.3 0.4,0.1 0.3,0.5 0,0.6 z m 0.2,-1.4 c -0.2,-0.2 0,-0.6 0.4,-0.3 0.7,0.7 0.3,1.2 0.1,1 -0.2,0 -0.3,-0.4 -0.5,-0.7 z m 0.6,1.3 c 0.3,-0.2 0.3,-0.4 0.6,-0.4 0.2,0 0.3,0.2 0.4,0.4 0.1,0.2 0,0.4 -0.4,0.4 -0.4,0 -0.7,0.1 -0.9,0 -0.1,-0.1 0,-0.2 0.3,-0.4 z m 1,1 c 0.4,0.1 0.4,0.5 0,0.5 -0.5,0 -0.9,0 -0.8,-0.2 0,-0.2 0.4,-0.4 0.8,-0.3 z m -0.2,0.9 c 0,0 0.4,-0.1 0.5,0.2 0.1,0.2 -0.1,0.4 -0.5,0.3 -0.4,-0.1 -0.2,-0.4 0,-0.5 z m 0.5,-6.3 c 0,-0.3 -0.1,-0.9 0.3,-0.6 0.4,0.3 0.9,1.4 0.1,1.1 -0.3,0 -0.4,-0.2 -0.4,-0.5 z M 39,20 c 0.4,0.5 0.3,1.1 0,1.1 -0.4,0.1 -0.4,-0.6 -0.5,-1 -0.1,-0.4 0.3,-0.3 0.5,-0.1 z m -0.1,-1.1 c 0.2,-0.1 0.3,-0.1 0.5,0.1 0.2,0.3 0,0.8 -0.3,0.7 -0.3,-0.1 -0.4,-0.7 -0.2,-0.8 z m 0.6,2.1 c 0,-0.4 0.2,-0.3 0.4,-0.2 0.3,0.1 0.3,0.4 0,0.6 -0.3,0.3 -0.4,0 -0.4,-0.4 z m 0.8,-4.4 c 0.2,0.1 0.3,0.4 0,0.6 -0.3,0.2 -0.7,-0.2 -0.6,-0.4 0.1,-0.3 0.3,-0.4 0.6,-0.2 z m 0.4,1.6 c 0.2,0.3 0,0.5 -0.5,0.3 -0.2,-0.1 -0.5,-0.1 -1,-0.1 -0.6,0 -0.5,-0.4 -0.3,-0.5 0.3,-0.1 0.4,-0.1 0.7,-0.2 0.8,-0.2 1,0.3 1.1,0.5 z m -1.5,-2.6 c 0.1,-0.1 0.2,0 0.3,0.2 0.1,0.2 -0.2,0.5 -0.4,0.4 -0.1,-0.2 0,-0.6 0.1,-0.6 z m -2.1,-1.8 c 0.7,-0.1 0.7,0.1 0.7,0.3 0,0.2 -0.4,0.1 -0.4,0.3 0,0.2 0.4,0.5 0.6,0.3 0.2,-0.2 0.6,-0.3 0.8,0 0.2,0.3 -0.4,0.7 -0.8,0.6 -0.2,-0.1 -0.3,-0.2 -0.9,-0.4 -0.6,-0.3 -0.7,-0.9 0,-1.1 z m -1.4,-0.5 c 0.1,-0.1 0,-0.3 0.1,-0.4 0,-0.1 0.2,-0.3 0.4,-0.3 0.2,0 0.3,0.2 0.4,0.4 0.1,0.2 0.1,0.4 -0.1,0.7 -0.2,0.2 -0.4,0.1 -0.6,0.1 -0.2,-0.1 -0.3,-0.3 -0.2,-0.5 z m -0.5,3.1 c -0.4,-0.1 -0.7,-0.3 -0.5,-0.5 0.2,-0.1 0.5,-0.3 0.8,-0.1 0.6,0.3 0.1,0.6 -0.3,0.6 z m 0.1,-2.6 c 0,0.1 0.1,0.3 0.2,0.3 0.1,0.1 0,0.3 -0.1,0.4 -0.2,0.1 -0.2,0.3 -0.2,0.5 0,0.2 -0.3,0.4 -0.4,0.3 -0.1,0 -0.2,-0.1 -0.2,-0.3 0,-0.2 0.1,-0.4 0.3,-0.6 0.1,-0.2 0.1,-0.3 0.1,-0.6 0,-0.2 0.2,-0.2 0.3,0 z M 34.5,12 c 0.2,-0.4 0.5,-0.6 0.6,-0.4 0.2,0.4 -0.3,1.1 -0.3,1.1 -0.3,0.6 -0.5,-0.3 -0.3,-0.7 z m 0.3,4.7 c 0.4,0.2 0.3,0.7 -0.2,0.8 -0.4,0 -0.7,-0.5 -0.5,-0.7 0.3,-0.3 0.4,-0.3 0.7,-0.1 z M 34,11.2 c 0.1,0.1 0.3,0.5 0,0.8 -0.3,0.3 -0.6,0 -0.6,-0.4 -0.1,-0.3 0.2,-0.6 0.6,-0.4 z m -0.4,1.6 c 0.2,-0.1 0.4,0 0.4,0.1 0.1,0.2 0.1,0.7 -0.2,0.9 -0.3,0.2 -0.6,0 -0.6,-0.3 0.1,-0.3 0.2,-0.5 0.4,-0.7 z m 0.2,2.4 c 0.2,0.5 -0.2,0.5 -0.4,0.8 -0.2,0.2 -0.6,0.2 -0.5,-0.1 0.1,-0.2 0.1,-0.5 0.1,-0.7 -0.1,-0.2 -0.1,-0.4 0.1,-0.5 0.2,-0.2 0.5,0 0.7,0.5 z m -1.4,-4.7 c 0.3,-0.2 0.5,0 0.6,0.1 0.1,0.2 0.1,0.8 -0.3,1.1 C 32.4,12 32,11.8 32,11.4 32,11 32.1,10.7 32.4,10.5 Z M 31.3,10 c 0,0 0.1,-0.1 0.3,-0.1 0.2,0 0.3,0.1 0.3,0.3 0.1,0.2 -0.1,0.4 -0.2,0.4 -0.2,0.1 -0.4,0 -0.5,-0.2 -0.1,-0.1 0,-0.3 0.1,-0.4 z m -0.2,0.8 c 0.1,0.1 0.2,0.3 0,0.3 -0.2,0.1 -0.3,0.1 -0.5,-0.1 0,0 -0.2,-0.1 0,-0.3 0.1,0 0.3,0.1 0.5,0.1 z m -1,-1.2 c 0.3,0 0.6,0 0.6,0.3 0,0.3 0,0.4 -0.2,0.6 -0.3,0.2 -0.6,0.5 -0.7,0.1 -0.1,-0.4 -0.1,-1 0.3,-1 z m -0.4,1.6 c 0.3,0.4 0.1,0.6 -0.2,0.9 -0.3,0.3 -0.4,-0.1 -0.6,-0.4 -0.2,-0.3 -0.2,-0.4 0.2,-0.6 0.4,-0.2 0.5,-0.2 0.6,0.1 z M 28.9,9.3 c 0.2,0 0.3,0.1 0.4,0.2 0.2,0.2 0,0.4 -0.1,0.3 C 29,9.8 28.8,10 28.6,10 28.4,10 28.4,9.9 28.3,9.7 28.2,9.5 28.7,9.3 28.9,9.3 Z m -0.5,1.1 c 0.2,0.1 0.2,0.2 0.1,0.3 0,0.2 -0.2,0.3 -0.3,0.5 -0.1,0.1 -0.1,0.3 -0.1,0.4 0,0.2 -0.2,0.3 -0.2,0.4 -0.1,0 -0.2,0 -0.3,-0.1 -0.1,-0.1 -0.1,-0.3 -0.1,-0.6 0,-0.3 0.3,-0.5 0.4,-0.7 0.2,-0.1 0.4,-0.2 0.5,-0.2 z M 27.5,9.2 c 0.1,-0.1 0.3,-0.1 0.3,0.1 0,0.2 0,0.3 -0.2,0.4 0,0 -0.2,0.1 -0.3,0 0,-0.2 0.1,-0.4 0.2,-0.5 z m -0.2,4 c 0.1,-0.3 0.3,-0.5 0.5,-0.3 0.4,0.3 0.2,0.9 -0.1,0.9 -0.4,0.1 -0.4,-0.3 -0.4,-0.6 z M 26.1,11 c 0,0 0.7,-0.4 0.4,-0.5 C 26.2,10.4 26.3,9.6 26.4,9.3 26.5,9 26.7,9 26.9,9.2 c 0.2,0 0.1,0.5 0.1,0.7 0,0.3 0,0.3 -0.1,0.5 -0.1,0.2 -0.1,0.2 0.2,0.3 0.3,0.1 -0.1,0.6 -0.3,0.7 -0.2,0.1 -0.3,0.6 -0.7,0.4 -0.3,-0.2 -0.2,-0.7 0,-0.8 z M 25.3,9.1 c 0.2,-0.2 0.5,-0.2 0.5,0.1 0.1,0.3 0.1,0.5 -0.1,0.7 -0.2,0.2 -0.3,0.1 -0.4,0 0,-0.1 -0.1,-0.5 0,-0.8 z m 0,1.3 c 0.1,0.1 0.1,0.3 -0.1,0.6 -0.2,0.3 -0.2,0.4 -0.1,0.9 0.1,0.4 -0.1,0.8 -0.4,0.5 -0.4,-0.3 -0.5,-0.7 -0.3,-0.9 0.2,-0.2 0.2,-0.5 0.4,-0.8 0.1,-0.4 0.4,-0.5 0.5,-0.3 z m -1,-1.3 c 0.3,-0.2 0.4,0.3 0.4,0.5 0,0.2 -0.1,0.3 -0.2,0.3 -0.8,0 -0.5,-0.6 -0.2,-0.8 z m 0.3,3.7 c 0.4,0.5 0.3,0.7 -0.2,0.6 -0.5,-0.1 -0.9,-0.3 -0.6,-0.6 0.3,-0.3 0.6,-0.2 0.8,0 z m -0.9,-0.9 c -0.1,0.1 -0.2,0.4 -0.3,0.6 -0.1,0.2 -0.2,0.2 -0.4,0.1 -0.2,-0.1 -0.1,-0.3 0.1,-0.4 0.2,-0.1 0.1,-0.3 0.2,-0.4 0,-0.3 0.3,-0.4 0.4,-0.3 0,0 0.2,0.1 0,0.4 z M 23.4,9.3 c 0.2,0.1 0.2,0.2 0.2,0.4 0,0 0,0.2 -0.2,0.2 C 23.2,9.8 23.1,9.6 23.1,9.5 23.2,9.3 23.3,9.2 23.4,9.3 Z m -0.2,1.3 c 0.4,0.1 0.3,0.4 0.1,0.6 -0.2,0.2 -0.3,-0.1 -0.4,-0.2 0,-0.2 0.1,-0.5 0.3,-0.4 z M 22.7,12 c -0.1,0.1 -0.4,0 -0.4,-0.2 0,-0.2 0.1,-0.3 0.3,-0.2 0.3,0 0.2,0.3 0.1,0.4 z M 22.1,9.7 c 0.1,-0.1 0.4,-0.3 0.5,0.1 0,0.2 0.2,0.6 0,0.6 -0.2,0.1 -0.4,0 -0.4,-0.1 C 22.1,10.1 22,9.8 22.1,9.7 Z M 21.2,9.6 c 0.2,-0.2 0.4,0.2 0.5,0.4 0,0 0.1,0.4 0,0.7 0,0.3 -0.2,0.4 -0.4,0 C 21.1,10.4 21,9.8 21.2,9.6 Z m 0.4,2.3 c 0,0 0.1,0.2 0.4,0.4 0.4,0.3 -0.1,0.6 -0.3,0.5 -0.2,0 -0.3,-0.1 -0.6,0.1 -0.3,0.2 -0.7,0.3 -0.7,-0.2 0,-0.5 0.4,-0.6 0.6,-0.7 0.1,-0.1 0.5,-0.3 0.6,-0.1 z m -0.9,-1.6 c 0.6,1.2 -0.2,1.4 -0.2,1.1 0,-0.3 -0.2,-0.8 -0.2,-1.1 -0.2,-0.4 0.1,-0.4 0.4,0 z m -0.9,4 c 0.1,-0.4 0.2,-0.3 0.4,-0.4 0.4,-0.2 0.8,-0.1 1.1,0.1 0.3,0.2 -0.1,0.4 -0.2,0.7 -0.2,0.3 -0.3,0 -0.7,0.1 -0.4,0.1 -0.6,-0.1 -0.6,-0.5 z M 19.7,19 c -0.3,0.5 -0.7,0.2 -0.9,-0.1 -0.1,-0.3 0.2,-0.7 0.6,-0.6 0.4,0.1 0.5,0.4 0.3,0.7 z m -0.4,-8.5 c 0.1,-0.1 0.2,-0.2 0.3,-0.1 0.1,0.1 0.1,0.2 0.1,0.4 0,0 -0.1,0.2 -0.3,0.1 -0.1,0 -0.1,-0.2 -0.1,-0.4 z m -0.1,1.3 c 0.1,-0.1 0.3,-0.1 0.4,0.1 0,0 0.2,0.5 0.2,0.8 0,0.2 -0.2,0.3 -0.5,0.3 -0.3,0 -0.3,-0.2 -0.5,-0.5 -0.2,-0.2 0,-0.3 0.2,-0.4 0.1,0 0.1,-0.1 0.2,-0.3 z m -0.4,-1 c 0.1,0.2 0.1,0.5 -0.1,0.7 -0.2,0.2 -0.6,-0.3 -0.5,-0.5 0,-0.2 0.4,-0.4 0.6,-0.2 z m -0.4,2.3 c 0.4,0.1 0.6,0.4 0.3,0.7 -0.3,0.3 -0.4,-0.1 -0.5,-0.3 -0.1,-0.2 -0.1,-0.5 0.2,-0.4 z m -1,-1.7 c 0.6,-0.1 0.8,0.7 0.6,0.9 -0.2,0.3 -0.6,0.3 -0.7,0 -0.1,-0.2 -0.5,-0.8 0.1,-0.9 z m -0.1,3.5 c -0.1,0.3 -0.2,0.6 -0.5,0.7 -0.3,0.1 -0.3,-0.2 -0.3,-0.5 0,-0.3 0,-0.5 0.1,-0.7 0.1,-0.2 0.2,-0.2 0.3,-0.2 0.6,-0.1 0.5,0.4 0.4,0.7 z m -0.7,-2.6 c 0.3,0.4 0.5,0.8 0,0.9 -0.5,0 -0.5,-0.3 -0.5,-0.5 0,-0.7 0.2,-0.8 0.5,-0.4 z m -0.4,5.1 c 0.2,0.1 0.3,0.7 -0.1,0.6 -0.3,-0.1 -0.5,0.1 -0.7,0 -0.2,-0.1 -0.1,-0.3 0.2,-0.5 0.4,-0.2 0.6,-0.1 0.6,-0.1 z M 16,16.6 c 0,0.2 0,0.3 -0.4,0.4 -0.4,0.1 -0.1,-0.5 0,-0.8 0.1,-0.3 0.3,-0.2 0.4,-0.1 -0.1,0.1 0,0.3 0,0.5 z m -1,-3.3 c 0.1,-0.2 0.3,-0.2 0.6,-0.1 0.4,0.2 0.3,0.8 -0.1,0.8 -0.3,0.1 -0.6,-0.5 -0.5,-0.7 z m 0.6,1.5 c 0.1,0.1 0.3,0.5 0,0.8 -0.3,0.3 -0.7,0 -0.7,-0.4 0,-0.4 0.3,-0.7 0.7,-0.4 z m -1.1,-1 c 0.3,0.1 0.2,0.4 0,0.5 -0.1,0.1 -0.4,0 -0.4,-0.2 0.1,-0.2 0.2,-0.3 0.4,-0.3 z m -0.4,3 c 0,-0.2 0.2,-0.4 0.1,-0.8 -0.1,-0.4 -0.1,-0.5 0.2,-0.2 0.3,0.2 0.3,0.5 0.3,0.5 0.1,0.3 0.1,0.5 -0.3,0.6 -0.3,0.1 -0.3,0 -0.3,-0.1 z m -0.1,1 c 0.2,0 0.2,0.2 0.2,0.5 0,0.2 -0.1,0.2 -0.3,0.5 -0.2,0.2 -0.3,-0.2 -0.3,-0.3 -0.1,-0.2 0,-0.3 0.1,-0.4 0,-0.3 0.1,-0.3 0.3,-0.3 z m -1.1,-2.5 c 0.1,-0.2 0.3,-0.2 0.5,-0.1 0.3,0.2 0.3,0.7 -0.1,0.7 -0.3,0 -0.5,-0.5 -0.4,-0.6 z m -0.7,0.8 c 0.2,-0.2 0.3,-0.2 0.5,-0.1 0.1,0 0.2,0.2 0.2,0.4 0,0.3 -0.1,0.3 -0.3,0.3 -0.2,0 -0.3,0.1 -0.5,0 -0.3,-0.1 -0.1,-0.3 0.1,-0.6 z m -0.3,1.3 c 0.2,0.1 0.3,0.4 0,0.5 -0.3,0.1 -0.7,-0.2 -0.6,-0.4 0.1,-0.3 0.3,-0.3 0.6,-0.1 z m -1.1,1.1 c 0.1,-0.1 0.3,0 0.4,0.1 0.1,0.1 0.4,0.4 0.6,0.6 0.2,0.2 0.3,0.2 0.3,0.3 0,0.1 -0.3,0.2 -0.4,-0.1 -0.2,-0.2 -0.4,-0.2 -0.5,-0.2 -0.1,0 -0.4,-0.1 -0.5,-0.3 -0.1,-0.1 0,-0.3 0.1,-0.4 z m -0.6,1.3 c 0.1,-0.2 0.4,-0.2 0.6,0 0.2,0.2 0.3,0.5 0.1,0.5 -0.2,0.1 -0.2,0.3 -0.3,0.4 -0.1,0.1 -0.4,-0.1 -0.5,-0.3 -0.1,-0.1 0,-0.4 0.1,-0.6 z m -0.1,4.5 C 9.9,24.2 9.8,24.1 9.9,23.8 c 0.1,-0.3 0.3,-0.5 0.4,-0.6 0.1,-0.1 0.2,-0.1 0.2,0.1 0,0 0.1,0.2 0.1,0.2 0,0.1 0,0.2 -0.1,0.3 -0.1,0.1 0,0.2 0,0.3 0,0.2 -0.2,0.2 -0.4,0.2 z m 0.2,1.1 C 10.2,25.6 9.9,25.8 9.7,25.9 9.5,26 9.2,26.2 9.1,26.1 8.9,25.9 9,25.6 9.3,25.5 9.5,25.4 9.6,25.1 9.8,25 c 0.4,-0.2 0.7,0 0.5,0.4 z M 9.7,21.2 c 0,-0.2 0.1,-0.2 0.3,0 0.2,0.2 0.2,0.2 0.3,0.3 0.1,0.1 0.1,0.2 0.1,0.3 C 10.4,21.9 10.2,22 10,22 9.8,22 9.6,21.9 9.6,21.7 9.5,21.5 9.7,21.4 9.7,21.2 Z m -0.4,1.5 c 0.1,-0.1 0.2,-0.1 0.5,-0.1 0.2,0 0.3,0.2 0.1,0.3 -0.2,0.1 -0.2,0.3 -0.3,0.4 -0.1,0.1 -0.2,0 -0.4,0 -0.2,-0.1 0,-0.5 0.1,-0.6 z M 9,24.4 c 0.1,-0.2 0.1,-0.2 0.2,-0.2 0.2,0 0.2,0.1 0.2,0.2 0,0.1 0.1,0.1 0.1,0.2 0,0.1 0,0.1 -0.1,0.2 0,0 -0.1,0.1 -0.3,0.1 C 9.1,24.7 9,24.5 9,24.4 Z m 34.1,2 c -0.1,4.6 -2,8.7 -5,11.7 -3.1,3.1 -7.4,5 -12.1,5 -4.7,0 -9,-1.9 -12.1,-5 -2.9,-2.9 -4.8,-6.9 -5,-11.3 0,0 0,-0.1 0,-0.1 0.3,-0.1 0.6,-0.2 0.9,-0.4 0.5,-0.4 0.7,-0.4 1.1,-0.3 0.4,0.1 0.6,0 0.9,-0.2 0.2,-0.2 0.3,-0.2 0.6,-0.3 0.3,0 0.5,-0.2 0.8,-0.4 0.2,-0.2 0.6,-0.5 0.9,-0.4 0.3,0.1 0.6,0.2 0.8,0.1 0.2,-0.1 0.5,-0.3 0.7,-0.5 0.1,-0.2 0.4,-0.6 0.7,-0.7 0.2,0 0.4,-0.1 0.7,-0.1 0.5,0.1 0.8,0.5 1.3,0.8 0.5,0.3 1,0.5 1.6,0.7 0.5,0.2 1,0.3 1.4,0.5 0.4,0.2 0.2,0.1 0.5,0.3 0,0 0.3,0.2 0.3,0.4 0,0.1 0,0.4 0,0.4 -0.1,0.5 -0.1,0.9 -0.1,1.1 -0.1,0.2 -0.1,0.3 -0.1,0.6 0,0.3 -0.1,0.4 -0.1,0.6 0,0.2 -0.2,0.4 -0.2,0.5 -0.1,0.1 -0.1,0.4 -0.2,0.5 -0.2,0.1 -0.4,0.2 -0.6,0.2 -0.2,0 -0.5,0 -0.6,0.1 -0.2,0.1 -0.4,0.2 -0.7,0.2 -0.2,0 -0.5,0 -0.8,0.1 -0.3,0 -0.3,0.1 -0.7,0.1 -0.3,0 -0.6,-0.1 -0.8,-0.1 -0.2,0 -0.4,0 -0.6,0.1 -0.2,0.1 -0.2,0.3 -0.1,0.4 0.1,0.1 0.2,0.3 0.5,0.3 0.3,0 0.5,0.1 0.7,0.1 0.2,0 0.7,0 1,0 0.3,0 0.8,0 1.1,-0.1 0.3,-0.1 0.7,-0.2 0.9,-0.2 0,0 0.3,-0.1 0.5,0 0.2,0 0.5,0.1 0.6,0.2 0.1,0 0.7,0.1 0.9,0.1 0.3,0 0.6,0 0.9,0 l 1.2,-0.1 c 0.6,0 0.5,-0.5 0.3,-0.6 -0.1,0 -0.4,0.1 -0.6,0.1 0,0 -0.6,0.1 -0.9,-0.2 -0.1,-0.1 -0.1,-0.3 0,-0.6 0.1,-0.3 0.1,-0.6 0,-0.8 -0.1,-0.2 -0.1,-0.4 -0.1,-0.4 0,-0.2 0.1,-0.3 0.2,-0.4 0.3,-0.3 0.5,-0.3 0.7,-0.2 0,0 0.2,0.1 0.2,0.4 -0.1,0.2 -0.2,0.3 -0.2,0.4 0,0.2 0,0.2 0.1,0.4 0.1,0.2 0.1,0.3 0,0.5 -0.2,0.3 -0.1,0.5 0.2,0.5 0,0 0.5,0 0.6,-0.1 0.2,-0.1 0.3,-0.3 0.3,-0.5 0,-0.2 -0.2,-0.3 0,-0.5 0.3,-0.3 0.2,-0.5 0.2,-0.8 0,-0.3 0.1,-0.2 0.1,-0.5 0.1,-0.2 -0.1,-0.4 -0.3,-0.3 -0.1,0.2 -0.2,-0.5 -0.1,-0.7 0.1,-0.1 0.2,-0.2 0.2,-0.4 0.1,-0.2 0.1,-0.1 0,-0.4 -0.1,-0.3 -0.2,-0.1 -0.3,-0.2 -0.3,-0.1 -0.2,-0.6 -0.1,-1 0.1,-0.3 0.3,0 0.5,0.4 0.2,0.3 0.2,-0.4 0.2,-0.7 -0.1,-0.3 0.1,-0.9 0,-1.1 -0.1,-0.3 -0.1,-0.6 0,-0.9 0.1,-0.2 0.1,-0.7 0.1,-1.1 0.1,-0.2 0.3,-0.3 0.7,-0.3 0,0.1 0,0.3 0,0.4 0,0.2 -0.1,0.4 -0.2,0.6 -0.1,0.2 0,0.5 0.1,0.6 0.1,0.1 0,0.2 0,0.3 -0.1,0.1 -0.1,0.3 0,0.4 0.1,0.1 0,0.1 0,0.3 0,0.3 0,0.2 0,0.5 0,0.3 -0.1,0.6 0.1,0.6 0.2,0 0.4,-0.1 0.5,0.1 0.1,0.2 0.1,0.6 0.3,0.5 0.2,-0.1 0.3,-0.3 0.3,-0.6 0,-0.3 -0.2,-0.6 -0.2,-1 0,-0.4 0,-0.4 0,-0.8 0.1,-0.4 0.1,-0.4 0,-0.8 0,-0.2 -0.1,-0.3 -0.1,-0.5 0.1,0.1 0.3,0.2 0.8,0.2 v 0 c 0,0 0,0.1 0,0.1 -0.2,0.3 -0.2,0.4 -0.1,0.6 0.1,0.2 0.4,0.3 0.1,0.6 -0.2,0.2 -0.1,0.6 0.3,0.5 0.4,-0.1 0.5,0 0.5,0.3 -0.1,0.3 0.2,0.4 0.3,0.3 0.8,0 0.8,0.9 0.3,1 -0.5,0.1 -0.5,0.2 -0.8,0.3 -0.2,0.1 -0.3,0.6 -0.2,0.8 0.1,0.2 0.2,0.3 0.1,0.5 -0.2,0.2 -0.2,0.4 -0.1,0.6 0.1,0.2 0.2,0.4 0,0.6 -0.2,0.2 -0.3,0.7 -0.1,0.9 0.2,0.3 0.3,0.6 0.1,0.8 -0.2,0.2 -0.2,0.1 -0.5,0 -0.3,-0.1 -0.5,0.1 -0.6,-0.2 0,-0.5 0.3,-0.4 0.3,-0.8 0,-0.3 0,0 0,-0.3 0,-0.3 0.3,-0.6 0.1,-1 -0.1,-0.4 0.2,-0.5 0.1,-0.8 -0.1,-0.3 -0.4,-0.4 -0.5,-0.7 -0.1,-0.3 -0.1,-0.5 -0.4,-0.5 -0.3,0 -0.1,1.4 -0.1,1.9 -0.1,0.5 -0.1,0.7 0,0.9 0.1,0.2 0.1,0.3 0.1,0.5 0,0.4 -0.2,0.5 -0.1,0.7 0.1,0.2 0,0.3 -0.3,0.4 -0.3,0 -0.5,0.1 -0.6,0.4 -0.1,0.2 0.3,0.2 0.4,0.2 0.3,-0.1 0.7,-0.2 0.8,-0.1 0,0 0.4,0.3 0.7,0.3 0.3,0 0.8,0.1 1.1,0.1 0.3,0 1.3,0 1.8,-0.1 0.5,-0.1 1.2,-0.3 1.6,-0.1 0,0 0.8,0.3 1.1,0.3 0.3,0 1,0 1.4,0 0.3,0 1.2,0.2 1.5,0.1 0.3,0 0.6,-0.1 0.5,-0.3 -0.1,-0.2 -0.3,-0.2 -0.7,-0.3 -0.4,-0.2 -0.4,-0.3 -1.1,-0.3 -0.7,0 -0.8,0.2 -1.1,0.1 -0.3,0 -0.5,-0.2 -0.9,-0.4 -0.4,-0.2 -0.9,-0.4 -1.2,-0.3 -0.3,0 -1.2,0.2 -1.5,0.1 -0.3,-0.1 -0.8,-0.3 -1,-0.6 -0.2,-0.4 -0.2,-0.6 -0.2,-0.9 0.2,-0.7 0,-1.5 0,-1.5 0,0 0,-0.3 0.1,-0.5 0.1,-0.1 0.2,-0.5 0.4,-0.6 0.3,-0.1 0.4,-0.2 0.7,-0.2 0.4,0 0.7,-0.1 1.1,-0.2 0.4,0 2,-0.3 2.5,-0.5 0.5,-0.2 0.9,-0.4 1.2,-0.5 0.3,-0.1 0.7,-0.2 1.1,-0.3 0.1,0.3 0.5,0.5 1.3,0.2 0.9,-0.4 1.1,-0.3 1.4,0.2 0.3,0.5 0.6,0.6 1.1,0.7 0.5,0.1 0.8,0 0.9,0.4 0.1,0.3 0.3,0.7 0.8,0.6 0.6,0 0.8,0.1 1,0.3 0,-0.1 0,-0.1 0,0 z"
   id="path33" />
	</g>
	<g
   id="g48">
		<path
   d="m 84.3,38.5 c -1.6,0 -2.6,0.5 -3.2,1.3 -0.6,0.7 -0.9,1.6 -0.9,2.6 0,1.1 0.3,2 0.9,2.8 0.7,0.8 1.7,1.2 3,1.2 1.4,0 2.4,-0.3 3.2,-1.2 0.6,-0.7 1,-1.6 1,-2.7 0,-1 -0.1,-1.8 -0.7,-2.5 -0.7,-0.9 -1.8,-1.5 -3.3,-1.5 z M 86,45 c -0.5,0.6 -1,0.9 -1.8,0.9 -0.8,0 -1.6,-0.5 -2,-1 -0.5,-0.7 -0.6,-1.4 -0.6,-2.4 0,-1.1 0.3,-2 0.7,-2.6 0.5,-0.6 1,-0.9 1.8,-0.9 0.9,0 1.6,0.5 1.9,1 0.5,0.7 0.6,1.5 0.6,2.5 0.2,1.2 -0.1,1.9 -0.6,2.5 z"
   id="path34" />
		<path
   d="m 99.9,38.5 c -1.6,0 -2.6,0.5 -3.2,1.3 -0.6,0.7 -0.9,1.6 -0.9,2.6 0,1.1 0.3,2 0.9,2.8 0.7,0.8 1.7,1.2 3,1.2 1.4,0 2.4,-0.3 3.2,-1.2 0.6,-0.7 1,-1.6 1,-2.7 0,-1 -0.1,-1.8 -0.7,-2.5 -0.7,-0.9 -1.8,-1.5 -3.3,-1.5 z m 1.7,6.5 c -0.5,0.6 -1,0.9 -1.8,0.9 -0.8,0 -1.6,-0.5 -2,-1 -0.5,-0.7 -0.6,-1.4 -0.6,-2.4 0,-1.1 0.3,-2 0.7,-2.6 0.5,-0.6 1,-0.9 1.8,-0.9 0.9,0 1.6,0.5 2,1 0.5,0.7 0.6,1.5 0.6,2.5 0.1,1.2 -0.2,1.9 -0.7,2.5 z"
   id="path35" />
		<path
   d="m 172.7,38.8 c -0.6,0 -1.2,0 -1.2,0 v 0.1 c 0,0 0.3,0 0.5,0.2 0.2,0.2 0.1,0.4 0,0.7 -0.2,0.4 -0.5,0.9 -0.9,1.5 -0.5,0.8 -0.6,0.8 -0.6,0.8 0,0 -0.3,-0.5 -0.9,-1.4 -0.4,-0.7 -0.9,-1.3 -0.8,-1.6 0.1,-0.3 0.5,-0.3 0.5,-0.3 v -0.1 c 0,0 -0.3,0 -1.4,0 -1.1,0 -1.2,0 -1.2,0 v 0.1 c 0,0 0.2,0 0.4,0.2 0.2,0.2 0.3,0.4 0.5,0.6 0.5,0.8 1.9,3.2 1.9,3.2 0,0 0,0.6 0,0.8 0,0.4 0,1 0,1.4 0,0.4 0,0.6 -0.2,0.9 -0.2,0.2 -0.5,0.3 -0.5,0.3 v 0.1 c 0,0 0.3,0 1.4,0 1.1,0 1.4,0 1.4,0 v -0.1 c 0,0 -0.3,0 -0.5,-0.3 -0.2,-0.3 -0.2,-0.5 -0.2,-0.9 0,-0.4 0,-1 0,-1.4 v 0 c 0,-0.1 0,-0.8 0,-0.8 0,0 2,-3.2 2.3,-3.5 0.4,-0.5 0.7,-0.5 0.7,-0.5 v -0.1 c -0.1,0.1 -0.5,0.1 -1.2,0.1 z"
   id="path36" />
		<path
   d="m 80.7,38.8 c 0,0 -0.4,0 -1.1,0 -0.6,0 -1.2,0 -1.2,0 v 0.1 c 0,0 0.3,0 0.5,0.2 0.2,0.2 0.1,0.4 0,0.7 -0.2,0.4 -0.5,0.9 -0.9,1.5 -0.5,0.8 -0.6,0.8 -0.6,0.8 0,0 -0.3,-0.5 -0.9,-1.4 -0.4,-0.7 -0.9,-1.3 -0.8,-1.6 0.1,-0.3 0.5,-0.3 0.5,-0.3 v -0.1 c 0,0 -0.3,0 -1.4,0 -1.1,0 -1.2,0 -1.2,0 v 0.1 c 0,0 0.2,0 0.4,0.2 0.2,0.2 0.3,0.4 0.5,0.6 0.5,0.8 1.9,3.2 1.9,3.2 0,0 0,0.6 0,0.8 0,0.4 0,1 0,1.4 0,0.4 0,0.6 -0.2,0.9 -0.2,0.2 -0.5,0.3 -0.5,0.3 v 0.1 c 0,0 0.3,0 1.4,0 1.1,0 1.4,0 1.4,0 v -0.1 c 0,0 -0.3,0 -0.5,-0.3 -0.2,-0.3 -0.2,-0.5 -0.2,-0.9 0,-0.4 0,-1 0,-1.4 v 0 c 0,-0.1 0,-0.8 0,-0.8 0,0 2,-3.2 2.3,-3.5 0.2,-0.5 0.6,-0.5 0.6,-0.5 z"
   id="path37" />
		<path
   d="m 133.5,38.8 v 0 c 0,0.1 0.3,0.1 0.5,0.3 0.3,0.3 0.1,0.6 0,0.8 -0.1,0.2 -1,2.6 -1,2.6 l -0.9,2.5 -1.2,-3 -1,-2.4 c -0.2,-0.7 0.2,-0.8 0.2,-0.8 v -0.1 c 0,0 -0.4,0 -1.1,0 -0.8,0 -1.3,0 -1.3,0 v 0.1 c 0,0 0.5,0 0.8,0.7 l 2.6,6.7 h 1.4 c 0,0 2.3,-6.2 2.4,-6.4 0.1,-0.2 0.1,-0.4 0.3,-0.6 0.2,-0.3 0.5,-0.3 0.5,-0.3 v -0.1 c 0,0 -0.4,0 -1.2,0 -0.8,0 -1,0 -1,0 z"
   id="path38" />
		<path
   d="m 113.9,38.8 v 0 c 0,0.1 0.2,0.1 0.4,0.3 0.2,0.3 0.2,0.5 0.2,0.9 0,0.4 0,1 0,1.4 v 0.4 c 0,0.1 0,0.8 0,0.9 0,0.5 0,1.5 -0.4,2.1 -0.5,0.9 -1.5,0.9 -2.1,0.8 -0.7,0 -1.3,-0.4 -1.6,-1 -0.3,-0.5 -0.3,-1.4 -0.3,-1.9 0,-0.1 0,-0.8 0,-0.9 v -0.4 0 c 0,-0.4 0,-1 0,-1.4 0,-0.4 0,-0.6 0.2,-0.9 0.2,-0.3 0.4,-0.3 0.4,-0.3 v -0.1 c 0,0 -0.4,0 -1.4,0 -1,0 -1.2,0 -1.2,0 v 0.1 c 0,0 0.2,0 0.4,0.3 0.2,0.3 0.2,0.5 0.2,0.9 0,0.4 0,1 0,1.4 V 43 c 0,0.9 0.1,1.6 0.4,2.1 0.3,0.5 0.7,0.8 1.1,1 0.5,0.3 1.3,0.4 2,0.4 0.7,0 1.3,-0.2 1.7,-0.5 0.4,-0.3 0.6,-0.5 0.8,-0.9 0.2,-0.4 0.4,-1.2 0.4,-2.1 v -1.5 c 0,-0.4 0,-1 0,-1.4 0,-0.4 0,-0.6 0.2,-0.9 0.2,-0.3 0.4,-0.3 0.4,-0.3 v -0.1 c 0,0 -0.5,0 -1,0 -0.3,0 -0.8,0 -0.8,0 z"
   id="path39" />
		<path
   d="m 124.6,38.8 v 0 c 0,0.1 0.2,0.1 0.4,0.3 0.2,0.3 0.2,0.5 0.2,0.9 0,0.4 0,1 0,1.4 v 2.1 c 0,0.4 0,1.1 0,1.5 0,0.4 0,0.6 -0.2,0.9 -0.2,0.2 -0.4,0.3 -0.4,0.3 v 0.1 c 0,0 0.3,0 1.4,0 1.1,0 1.3,0 1.3,0 v -0.1 c 0,0 -0.2,0 -0.4,-0.3 -0.2,-0.3 -0.2,-0.5 -0.2,-0.9 0,-0.4 0,-1 0,-1.5 v -2.1 c 0,-0.4 0,-1 0,-1.4 0,-0.4 0,-0.6 0.2,-0.9 0.2,-0.3 0.4,-0.3 0.4,-0.3 v -0.1 c 0,0 -0.3,0 -1.4,0 -1,0.1 -1.3,0.1 -1.3,0.1 z"
   id="path40" />
		<path
   d="m 156.5,38.8 v 0 c 0,0.1 0.2,0.1 0.5,0.3 0.2,0.3 0.2,0.5 0.2,0.9 0,0.4 0,1 0,1.4 v 2.1 c 0,0.4 0,1.1 0,1.5 0,0.4 0,0.6 -0.2,0.9 -0.2,0.2 -0.4,0.3 -0.4,0.3 v 0.1 c 0,0 0.3,0 1.4,0 1.1,0 1.3,0 1.3,0 v -0.1 c 0,0 -0.2,0 -0.4,-0.3 -0.2,-0.3 -0.2,-0.5 -0.2,-0.9 0,-0.4 0,-1 0,-1.5 v -2.1 c 0,-0.4 0,-1 0,-1.4 0,-0.4 0,-0.6 0.2,-0.9 0.2,-0.3 0.5,-0.3 0.5,-0.3 v -0.1 c 0,0 -0.3,0 -1.4,0 -1.1,0 -1.5,0.1 -1.5,0.1 z"
   id="path41" />
		<path
   d="m 95.4,38.7 c 0,0 -0.2,0.1 -1,0.1 -0.3,0 -4.4,0 -4.8,0 -0.8,0 -1,-0.1 -1,-0.1 h -0.1 c 0,0 0.1,0.2 0,0.8 0,0.4 0,0.8 0,0.8 h 0.1 c 0,0 0.2,-0.5 0.5,-0.8 0.2,-0.2 0.5,-0.2 0.8,-0.2 0.2,0 0.6,0 1,0 0.2,0 0.4,0 0.4,0 v 3.6 c 0,0 0,0.3 0,0.6 0,0.4 0,1 0,1.4 0,0.4 0,0.6 -0.2,0.9 -0.2,0.2 -0.4,0.3 -0.4,0.3 v 0.1 c 0,0 0.3,0 1.4,0 1.1,0 1.3,0 1.3,0 v -0.1 c 0,0 -0.2,0 -0.5,-0.3 -0.2,-0.3 -0.2,-0.5 -0.2,-0.9 0,-0.4 0,-1 0,-1.4 0,-0.4 0,-0.6 0,-0.6 v -3.6 c 0,0 0.2,0 0.3,0 0,0 0.8,0 1,0 0.3,0 0.6,0 0.8,0.2 0.2,0.2 0.5,0.8 0.5,0.8 h 0.1 c 0,0 0,-0.4 0,-0.8 0,-0.6 0,-0.8 0,-0.8 z"
   id="path42" />
		<path
   d="m 166.4,38.6 c 0,0 -0.2,0.2 -1,0.2 -0.3,0 -4.4,0 -4.8,0 -0.8,0 -1,-0.2 -1,-0.2 h -0.1 c 0,0 0.1,0.3 0,0.9 0,0.4 0,0.8 0,0.8 h 0.1 c 0,0 0.2,-0.5 0.5,-0.8 0.2,-0.2 0.6,-0.2 0.8,-0.2 0.2,0 0.6,0 1,0 0.2,0 0.4,0 0.4,0 v 3.6 c 0,0 0,0.3 0,0.6 0,0.4 0,1 0,1.4 0,0.4 0,0.6 -0.2,0.9 -0.2,0.2 -0.4,0.3 -0.4,0.3 v 0.1 c 0,0 0.3,0 1.4,0 1.1,0 1.3,0 1.3,0 v -0.1 c 0,0 -0.2,0 -0.4,-0.3 -0.2,-0.3 -0.2,-0.5 -0.2,-0.9 0,-0.4 0,-1 0,-1.4 0,-0.4 0,-0.6 0,-0.6 v -3.6 c 0,0 0.2,0 0.4,0 0,0 0.8,0 1,0 0.3,0 0.6,0 0.8,0.2 0.3,0.2 0.5,0.8 0.5,0.8 h 0.1 c 0,0 0,-0.4 0,-0.8 -0.2,-0.6 -0.1,-0.9 -0.2,-0.9 z"
   id="path43" />
		<path
   d="m 121.9,38.8 v 0 c 0,0.1 0.2,0.1 0.4,0.3 0.2,0.3 0.2,0.5 0.2,0.9 0,0.4 0,1.3 0,1.7 v 1.1 1.1 l -4.1,-5.1 c -0.1,0 -0.3,0 -0.8,0 -0.2,0 -0.3,0 -0.5,0 -0.3,0 -0.6,0 -0.6,0 v 0.1 c 0,0 0.2,0 0.4,0.3 0.2,0.3 0.2,0.5 0.2,0.9 0,0.4 0,1 0,1.4 v 1 1.1 c 0,0.4 0,1 0,1.4 0,0.4 0,0.6 -0.2,0.9 -0.2,0.2 -0.4,0.3 -0.4,0.3 v 0.1 c 0,0 0.3,0 1,0 0.6,0 1,0 1,0 v -0.1 c 0,0 -0.2,0 -0.4,-0.3 -0.2,-0.3 -0.2,-0.5 -0.2,-0.9 0,-0.4 0,-1 0,-1.4 v -2.1 c 0,-0.3 0,-0.7 0,-1 l 4.7,5.8 h 0.6 c 0,-0.1 -0.1,-0.5 -0.1,-1.8 v -1.6 -1.1 c 0,-0.4 0,-1.3 0,-1.7 0,-0.4 0,-0.6 0.2,-0.9 0.2,-0.3 0.4,-0.3 0.4,-0.3 v -0.1 c 0,0 -0.4,0 -1,0 -0.5,0 -0.8,0 -0.8,0 z"
   id="path44" />
		<path
   d="m 142.2,44.5 c 0,0 -0.2,0.5 -0.6,0.8 -0.3,0.2 -0.6,0.2 -0.8,0.2 -0.2,0 -1,0 -1,0 -0.1,0 -1.1,0 -1.7,0 v -2.8 c 0.4,0 1.2,0 1.6,0 0.4,0 0.6,0 0.9,0.2 0.2,0.2 0.3,0.4 0.3,0.4 h 0.1 c 0,0 0,-0.4 0,-1 0,-0.7 0,-1 0,-1 h -0.1 c 0,0 0,0.2 -0.3,0.4 -0.3,0.2 -0.5,0.2 -0.9,0.2 -0.4,0 -1.2,0 -1.6,0 v -2.5 c 0,0 1.2,0 1.4,0 0,0 0.8,0 1,0 0.3,0 0.6,0 0.8,0.2 0.4,0.2 0.6,0.8 0.6,0.8 h 0.1 c 0,0 0,-0.4 0,-0.8 0,-0.5 0,-0.8 0,-0.8 h -0.1 c 0,0 -0.1,0 -0.9,0 -0.3,0 -0.8,0 -1.1,0 0,0 -2.3,0 -2.6,0 -1.1,0 -1.3,0 -1.3,0 v 0.1 c 0,0 0.2,0 0.5,0.3 0.2,0.3 0.2,0.5 0.2,0.9 0,0.4 0,1 0,1.4 v 2.1 c 0,0.4 0,1.1 0,1.5 0,0.4 0,0.6 -0.2,0.9 -0.2,0.2 -0.4,0.3 -0.4,0.3 v 0.1 c 0,0 0.3,0 1.4,0 0.1,0 2.4,0 2.5,0 v 0 c 0.2,0 0.3,0 0.3,0 0.3,0 0.8,0 1.1,0 0.8,0 0.9,0 0.9,0 h 0.1 c 0,0 0,-0.2 0,-0.8 -0.1,-0.6 -0.1,-1.1 -0.2,-1.1 z"
   id="path45" />
		<path
   d="m 154.5,42.4 c -0.3,-0.1 -1.2,-0.6 -1.6,-0.9 -0.8,-0.5 -1,-0.8 -1,-1.2 0,-0.6 0.4,-1.1 1.1,-1.1 0.6,0 1,0.1 1.4,0.4 0.6,0.4 0.9,1 0.9,1 h 0.1 c 0,0 0,-0.2 0,-0.8 0,-0.6 0,-0.9 0,-0.9 h -0.1 c 0,0 -0.1,0.3 -0.2,0.3 -0.2,0 -0.5,-0.3 -1.1,-0.4 -1,-0.2 -1.8,-0.1 -2.4,0.2 -0.5,0.3 -1,0.9 -0.9,1.7 0,0.3 0.2,0.8 0.6,1.2 0.4,0.4 1.4,0.9 1.9,1.1 1,0.6 1.3,0.8 1.2,1.5 0,0.4 -0.4,1.1 -1.6,1 -1.7,-0.1 -2.1,-1.7 -2.1,-1.7 h -0.1 c 0,0 0.1,0.4 0.1,1.1 0,0.7 -0.1,1.3 -0.1,1.3 h 0.1 c 0,0 0.1,-0.2 0.5,-0.3 0.2,0 0.4,0 0.8,0.2 0.7,0.3 1.7,0.2 2.2,0 0.9,-0.3 1.5,-1 1.6,-1.7 0,-1 -0.6,-1.6 -1.3,-2 z"
   id="path46" />
		<path
   d="m 149,45.3 c -0.2,-0.2 -1.5,-2.1 -1.7,-2.4 0.1,0 0.1,0 0.2,0 1,-0.2 1.8,-0.9 1.8,-2.1 0,-1.2 -0.8,-1.7 -1.4,-1.9 -0.5,-0.1 -2.4,-0.1 -3.5,-0.1 -0.9,0 -1.2,0 -1.2,0 v 0.1 c 0,0 0.2,0 0.4,0.3 0.2,0.3 0.2,0.5 0.2,0.9 0,0.4 0,1 0,1.4 v 2.1 c 0,0.4 0,1.1 0,1.5 0,0.4 0,0.6 -0.2,0.9 -0.2,0.2 -0.5,0.3 -0.5,0.3 v 0.1 c 0,0 0.3,0 1.4,0 1.1,0 1.3,0 1.3,0 v -0.1 c 0,0 -0.2,0 -0.5,-0.3 -0.2,-0.3 -0.2,-0.5 -0.2,-0.9 0,-0.4 0,-1.8 0,-1.8 h 0.7 l 2.1,3 c 0,0.1 0.1,0.1 0.2,0.1 h 1.5 0.5 v -0.1 c 0,0 -0.3,0 -0.6,-0.2 -0.1,-0.3 -0.2,-0.5 -0.5,-0.8 z m -3.9,-2.9 v -3.1 c 0,0 0.3,0 1.3,0 1,0 1.7,0.4 1.8,1.5 0,0.7 -0.4,1.3 -1,1.5 -0.9,0.2 -2.1,0.1 -2.1,0.1 z"
   id="path47" />
		<path
   d="M 73.2,45.8 C 73,45.6 72.3,45 72,44.7 l -2.5,-2.8 c 0,0 2.6,-2.3 3.1,-2.7 0.1,-0.1 0.4,-0.3 0.6,-0.4 v -0.1 c -0.3,0 -0.8,0 -1.2,0 -0.8,0 -1.3,0 -1.3,0 v 0.1 c 0,0 0.2,0 0.4,0.1 0.7,0.2 -0.2,0.9 -0.5,1.2 0,0 -0.3,0.3 -0.9,0.7 -0.6,0.5 -1.4,1.1 -1.5,1.1 0,0 0,-0.6 0,-0.6 0,-0.4 0,-1 0,-1.4 0,-0.4 0,-0.6 0.2,-0.9 0.2,-0.3 0.4,-0.3 0.4,-0.3 v -0.1 c 0,0 -0.3,0 -1.4,0 -1.1,0 -1.3,0 -1.3,0 v 0.1 c 0,0 0.2,0 0.5,0.3 0.4,0.4 0.4,0.6 0.4,1 0,0.4 0,1 0,1.4 0,0 0,2.1 0,2.2 0,0 0,0.1 0,0.1 0,0.4 0,0.9 0,1.3 0,0.4 0,0.6 -0.2,0.9 -0.2,0.3 -0.4,0.3 -0.4,0.3 v 0.1 c 0,0 0.3,0 1.4,0 1.1,0 1.3,0 1.3,0 v -0.1 c 0,0 -0.2,0 -0.4,-0.3 -0.2,-0.3 -0.2,-0.5 -0.2,-0.9 0,-0.4 0,-0.9 0,-1.3 0,0 0,-0.1 0,-0.1 0,-0.1 0,-1 0,-1 l 1.3,1.5 1.9,2.1 c 0,0 0.1,0.1 0.1,0.1 h 2 v -0.1 c -0.1,-0.1 -0.3,-0.1 -0.6,-0.4 z"
   id="path48" />
	</g>
	<g
   id="g57">
		<path
   d="M 84.3,10 H 78.9 V 7 C 79.6,6.6 79.7,6.2 79.7,6.2 L 75.2,5.8 c 0,0 0.4,0.2 0.4,0.6 V 10 H 65.3 l 0.5,0.5 h 21.8 c 0.2,0 1.5,0.1 1.8,-0.5 L 86.2,7.9 Z"
   id="path49" />
		<path
   d="m 74,23.3 -3.9,-1.9 c 0,0.2 0,0.4 -0.2,0.8 C 69.1,23.4 67,26 65,27.6 v 0.1 c 1.2,-0.3 3.6,-0.9 7.8,-4 0.7,0 1.1,-0.2 1.2,-0.4 z"
   id="path50" />
		<path
   d="m 82,20.4 c 0,0 0.6,0.1 1.1,0 1.7,-0.3 2.1,-1 2.1,-1 v -4.8 c 0.9,-0.4 1.1,-0.8 1.1,-0.8 L 83,11.6 81.8,12.9 H 72.7 L 69,11.7 c 0,0 0.3,0.3 0.3,0.8 v 8.1 c 0,0 0.9,0 1.7,-0.4 1,-0.4 1.5,-1.1 1.5,-1.1 h 3.2 v 7.1 c 0,0.8 -0.5,0.8 -1.1,0.8 -1.5,-0.1 -4,-0.4 -4,-0.4 l 0.1,0.2 c 2.2,0.7 3,1 3.3,1.2 0.5,0.3 0.7,1 0.7,2 0,0 0.8,0.2 1.4,0.2 1.2,-0.1 2.9,-0.9 2.9,-3.4 v -7.7 h 3 z M 72.6,18.6 V 13.4 H 82 v 5.2 z"
   id="path51" />
		<path
   d="m 80.4,22.1 v 0.2 c 1.7,1.2 3.5,3.4 4.3,5.2 0.4,0.3 0.8,0.5 1.2,0.5 1.1,0.1 2.2,-0.7 2,-2 -0.2,-1.2 -3,-3.7 -7.5,-3.9 z"
   id="path52" />
		<path
   d="m 113.9,8.8 h -2.6 L 108.2,7 c 0.2,0.1 0.2,0.4 0.2,0.4 v 1.4 5.8 l -1.7,-1.1 -1.5,1.6 h -1.4 c 1.5,-1.8 2.7,-3.4 3.5,-5 0.7,-0.1 0.8,-0.5 0.8,-0.5 L 105,8 c 0,0 0,0.3 -0.3,0.9 -0.2,0.4 -0.4,0.8 -0.6,1.3 l -1.5,-1 -1.4,1.4 h -0.4 v -2.1 0 -1.2 c 0.6,-0.4 0.7,-0.7 0.7,-0.7 L 97.8,6.2 c 0,0 0.3,0.2 0.3,0.5 v 1.7 2.3 h -3.4 l 0.5,0.5 H 98 v 4 h -4.7 l 0.5,0.5 h 6.7 c -0.1,0.1 -0.2,0.3 -0.3,0.4 -0.7,0.8 -1.4,1.5 -2.1,2.2 l -2.6,-0.8 c 0.2,0.2 0.2,0.4 0.2,0.4 v 2.6 c -1.3,1.1 -2.6,2 -3.8,2.6 v 0.4 c 1.1,-0.4 2.4,-0.9 3.7,-1.7 v 7.8 c 0,0 0.6,0.1 1.2,0 1.4,-0.3 1.6,-1 1.6,-1 v -0.8 h 4.9 v 1.6 c 0,0 0.7,0.1 1.2,-0.1 1,-0.3 1.5,-1 1.5,-1 v -8.4 c 0.4,-0.1 1,-0.5 1,-0.7 l -2.8,-1.9 -1.2,1.3 h -2.4 c 0.3,-0.3 0.6,-0.5 0.8,-0.8 0.7,-0.7 1.3,-1.4 1.9,-2 h 5.1 V 30 c 0,0 0.6,0.3 1.3,0 1.2,-0.4 1.3,-1.1 1.3,-1.1 v -4.8 c 0.8,0.1 2.9,1.3 2.6,3.3 0,0 1.7,-0.2 3.1,-1.3 1.3,-1 1.3,-2.9 1.3,-3.6 -0.2,-2.6 -1.7,-4.8 -4.9,-6.9 1.1,-1.6 3.1,-3.5 4.1,-5.1 0.5,-0.1 1,-0.4 1.1,-0.7 l -2.8,-2.7 z m -10.7,18.5 h -4.9 v -3.9 h 4.9 z m 0,-8.3 v 3.8 h -4.9 v -2.7 c 0.5,-0.4 1,-0.8 1.5,-1.2 h 3.4 z m -2.4,-7.7 h 2.7 c -0.7,1.2 -1.5,2.6 -2.6,4 h -0.1 z m 11.5,4.3 c 0.9,1 2.7,2.9 2.9,5.7 0.2,2.1 -1,2.9 -2.7,2.7 -0.6,-0.1 -1.5,-0.2 -1.5,-0.2 V 9.2 h 3.3 c -0.2,1.6 -1.7,5.5 -2,6.4 z"
   id="path53" />
		<path
   d="m 139.3,21.5 c -2.3,-2.6 -3.7,-6.2 -4,-7.5 h 9.5 c 0.2,0 1.6,0.1 1.9,-0.6 l -3.3,-2.2 -2.1,2.2 h -6.4 c 0.1,-1.2 0.3,-3.8 0.3,-4.7 l 0.1,-1.6 c 0.8,-0.5 1.1,-1 1.1,-1 l -4.9,-0.4 c 0,0 0.2,0.2 0.2,0.7 0,0 0.3,3.1 0,6.9 h -9.5 l 0.5,0.6 h 8.9 c -0.3,2.8 -0.8,5.9 -2.1,8.5 -1.6,3.4 -4.7,5.9 -7.2,6.9 l 0.1,0.4 c 3.8,-0.7 7.6,-2.7 9.5,-5.9 1.5,-2.5 2.3,-5 2.8,-8.4 0.7,4.1 3.4,10.5 7.8,13.3 0.7,0.4 1.4,0.7 1.4,0.7 0,0 -0.1,-0.7 0.1,-1.4 0.4,-1.4 1.8,-1.9 3.1,-1.9 v -0.3 c -3.2,-0.4 -5.3,-1.5 -7.8,-4.3 z"
   id="path54" />
		<path
   d="m 156.2,10.5 c 0.6,0.5 1.1,0.6 1.5,0.4 0.9,-0.3 1.4,-1.1 1.1,-2.3 -0.4,-1.2 -2.4,-2.3 -5.2,-2.3 l 0.1,0.2 c 1.2,0.8 2.1,2.5 2.5,4 z"
   id="path55" />
		<path
   d="m 161.4,9.9 c 0.4,0.7 1.2,0.9 1.7,0.8 1.2,-0.2 1.6,-1.3 1.2,-2.4 -0.6,-1.6 -3.3,-2.6 -5.5,-2.5 l 0.1,0.1 c 1.3,0.6 2.4,2.4 2.5,4 z"
   id="path56" />
		<path
   d="m 171.3,19.2 -1.9,2 h -5.3 v -1.3 l 4.3,-2.2 c 0.8,0.1 1.4,-0.3 1.6,-0.7 l -0.7,-0.5 3.8,-2 c 0.6,0 1,-0.2 1.1,-0.5 l -3.2,-2.5 -0.7,0.8 h -4.2 l 4.5,-3.9 c 1.1,-0.1 1.2,-0.6 1.2,-0.6 l -5.1,-2.2 c 0.4,0.5 -0.8,5.8 -1.1,6.7 h -11.1 c -0.1,-0.5 -0.3,-1.2 -0.6,-1.8 h -0.2 c -0.4,2 -1,3 -1.8,3.6 -0.8,0.6 -1.2,1.1 -1.2,1.9 -0.1,1 0.8,1.7 1.7,1.7 1.3,0 2.4,-1.4 2.4,-3.6 0,-0.5 0,-0.8 -0.1,-1.3 h 15.7 c -0.4,1 -1.1,2.7 -1.5,3.4 l -0.3,-0.2 -2.1,-1.5 -0.8,1 h -10.1 l 0.5,0.5 h 9.6 c 0,0 -0.8,1.5 -1.8,3.1 l -3.1,-0.6 C 161,18.7 161,19 161,19 v 1.3 0.9 h -10 l 0.5,0.5 h 9.6 v 3.5 c 0,0.8 -0.2,1 -1.3,0.8 -0.2,0 -3.1,-0.6 -3.7,-0.6 v 0.4 c 2.2,0.4 3.8,0.9 3.9,2.7 0,0.8 -0.1,1.1 -0.1,1.1 0,0 0.9,0 1.5,-0.1 2.5,-0.6 2.9,-1.9 2.9,-3.3 v -4.5 h 8.5 c 0.2,0 1.4,0.1 1.7,-0.5 z"
   id="path57" />
	</g>
</g></g></svg>
